<?xml version="1.0" encoding="UTF-8"?>
<svg version="1.1" xmlns="http://www.w3.org/2000/svg" width="750" height="750">
<path d="M0 0 C1.05864258 0.52489014 2.11728516 1.04978027 3.20800781 1.59057617 C6.64635852 3.29542087 10.07326062 5.0219497 13.5 6.75 C17.8110446 8.91281897 22.13082865 11.05691098 26.46166992 13.17980957 C28.22311941 14.04923218 29.97591491 14.93611723 31.72851562 15.82324219 C32.80294922 16.35208008 33.87738281 16.88091797 34.984375 17.42578125 C36.40314941 18.1360144 36.40314941 18.1360144 37.85058594 18.8605957 C43.40611036 20.72557686 47.94180292 17.77774479 52.93359375 15.36328125 C54.00517479 14.85404366 54.00517479 14.85404366 55.09840393 14.33451843 C57.38065177 13.24909904 59.65927247 12.15632937 61.9375 11.0625 C99.6077003 -6.96290499 99.6077003 -6.96290499 112.1875 -3.125 C120.87960986 1.79506219 124.69647761 7.93092548 129.1875 16.75 C130.40412076 19.07725552 131.62158438 21.40407059 132.83984375 23.73046875 C133.75032471 25.48496338 133.75032471 25.48496338 134.67919922 27.27490234 C137.94387208 33.50570866 141.36296644 39.65194248 144.76831055 45.80664062 C145.23148682 46.65033203 145.69466309 47.49402344 146.171875 48.36328125 C146.5750293 49.09329346 146.97818359 49.82330566 147.39355469 50.57543945 C148.5 52.75 148.5 52.75 149.34375 55.43847656 C150.27895262 57.92551158 150.27895262 57.92551158 152.63769531 58.68139648 C153.96945801 58.89904663 153.96945801 58.89904663 155.328125 59.12109375 C156.34132813 59.29962891 157.35453125 59.47816406 158.3984375 59.66210938 C159.50445312 59.83548828 160.61046875 60.00886719 161.75 60.1875 C164.10959252 60.60162713 166.46895869 61.01704549 168.828125 61.43359375 C170.07400391 61.64612793 171.31988281 61.85866211 172.60351562 62.07763672 C178.59790537 63.11200698 184.5764496 64.21927973 190.54821777 65.3767395 C192.45325037 65.74105956 194.36186814 66.08647203 196.27050781 66.43139648 C205.88140844 68.28079832 215.15099783 70.77089375 221.31640625 78.875 C227.65193454 88.91148046 225.56990919 99.6700907 223.828125 110.85546875 C223.48985167 113.16065583 223.15264347 115.46599942 222.81640625 117.77148438 C222.2849714 121.36765817 221.74617384 124.96216693 221.18896484 128.55444336 C220.65072971 132.04773692 220.14338478 135.54441783 219.640625 139.04296875 C219.3799826 140.64787422 219.3799826 140.64787422 219.11407471 142.28520203 C218.1883159 148.74851913 218.1883159 148.74851913 220.24194336 154.77880859 C222.70348046 158.03795499 222.70348046 158.03795499 225.48828125 160.99609375 C226.03033203 161.52396484 226.57238281 162.05183594 227.13085938 162.59570312 C227.68580078 163.12099609 228.24074219 163.64628906 228.8125 164.1875 C232.99309584 168.19948344 236.91219363 172.31288358 240.69458008 176.70385742 C242.51608395 178.76822847 244.39990027 180.74624331 246.32421875 182.71484375 C246.96037109 183.37033203 247.59652344 184.02582031 248.25195312 184.70117188 C249.54609617 186.02926822 250.84827242 187.34958218 252.15820312 188.66210938 C257.36375411 194.06930249 260.83946359 199.4591139 261.99609375 206.97265625 C261.75914836 218.45660936 259.00117083 223.90375025 251.03564453 232.14941406 C249.27390466 233.98565677 247.54081466 235.84682608 245.80859375 237.7109375 C238.84021188 245.19291335 231.79757804 252.57996205 224.48535156 259.7277832 C220.19799736 263.64565603 220.19799736 263.64565603 218.26623535 268.89689636 C218.36279614 274.74615381 218.80585751 280.44317239 219.59375 286.23828125 C219.82168509 288.01496491 220.0495474 289.79165792 220.27734375 291.56835938 C220.63697861 294.31308287 220.99932594 297.05742461 221.36376953 299.80151367 C225.61273309 332.00403273 225.61273309 332.00403273 218.8125 340.9765625 C214.22277607 346.38861196 214.22277607 346.38861196 211.5 347.75 C213.0745345 353.43121514 215.85600314 358.14170766 218.8125 363.1875 C219.90423748 365.07387646 220.99536217 366.96060768 222.0859375 368.84765625 C222.65022461 369.82105957 223.21451172 370.79446289 223.79589844 371.79736328 C226.5418339 376.55514888 229.23961477 381.33985526 231.9375 386.125 C233.03383094 388.06641937 234.13018521 390.00782556 235.2265625 391.94921875 C236.84512133 394.81699761 238.46332545 397.68497573 240.08105469 400.55322266 C246.83551572 412.52818768 253.6272237 424.48097825 260.46054077 436.41110229 C265.81402823 445.76057376 271.08949584 455.15177215 276.33154297 464.56420898 C281.03510981 472.98250166 285.87753844 481.31551356 290.79541016 489.61035156 C301.65730284 508.03464773 301.65730284 508.03464773 300.5 515.75 C298.3950479 519.80955048 296.72487531 522.05130855 292.5 523.75 C290.48847961 524.0061264 290.48847961 524.0061264 288.32543945 524.01501465 C287.50113434 524.02328781 286.67682922 524.03156097 285.82754517 524.04008484 C284.93183807 524.03910294 284.03613098 524.03812103 283.11328125 524.03710938 C282.1632724 524.04394241 281.21326355 524.05077545 280.23446655 524.05781555 C278.17304855 524.07139843 276.1115969 524.080455 274.05014038 524.08552551 C270.7889225 524.09380989 267.52798525 524.11431016 264.2668457 524.13806152 C256.16815082 524.19449515 248.06938779 524.22969196 239.97058105 524.26568604 C233.1261694 524.29691249 226.28189368 524.33609248 219.43759155 524.38594055 C216.22245478 524.40603157 213.00742284 524.4143329 209.79223633 524.42224121 C207.82372657 524.43521191 205.85522032 524.44873197 203.88671875 524.46289062 C202.99101166 524.46190872 202.09530457 524.46092682 201.17245483 524.45991516 C200.34814972 524.46818832 199.5238446 524.47646149 198.67456055 524.48498535 C197.96075729 524.48791847 197.24695404 524.49085159 196.51152039 524.4938736 C194.12605172 524.79761474 192.54536521 525.49615073 190.5 526.75 C188.79825262 529.09863606 188.79825262 529.09863606 187.3203125 531.97265625 C186.72855225 533.05562988 186.13679199 534.13860352 185.52709961 535.25439453 C184.89300426 536.44039646 184.25897275 537.62643253 183.625 538.8125 C182.95899217 540.03826595 182.29173725 541.26335505 181.62329102 542.48779297 C180.24775658 545.00897885 178.87697638 547.53266128 177.50927734 550.05810547 C173.98398239 556.55293704 170.34520553 562.98460913 166.72143555 569.42480469 C164.00520388 574.25862613 161.30204825 579.09796191 158.64915466 583.96691895 C157.69790943 585.71137921 156.74168112 587.45311923 155.78540039 589.19482422 C154.58321351 591.38572999 153.38923178 593.58116489 152.20483398 595.78173828 C151.66157471 596.76770996 151.11831543 597.75368164 150.55859375 598.76953125 C150.08736084 599.63682861 149.61612793 600.50412598 149.13061523 601.39770508 C146.8441782 604.69607622 144.08553833 606.95723083 140.5 608.75 C134.17765836 609.2768618 131.70984119 608.67915909 126.5 604.75 C124.58813477 602.13818359 124.58813477 602.13818359 122.94140625 599.1484375 C122.31613037 598.03194824 121.69085449 596.91545898 121.04663086 595.76513672 C120.38517363 594.55180157 119.72379885 593.33842148 119.0625 592.125 C118.36038007 590.86256691 117.65665831 589.60102351 116.95141602 588.34033203 C115.50162392 585.74675826 114.05791461 583.14994137 112.61816406 580.55078125 C109.4617715 574.86834027 106.1980427 569.24811117 102.9375 563.625 C101.69631358 561.47673638 100.45542837 559.32829871 99.21484375 557.1796875 C98.60237793 556.11975586 97.98991211 555.05982422 97.35888672 553.96777344 C94.23675395 548.56329355 91.11858796 543.15652588 88 537.75 C86.75001878 535.5833225 85.50001879 533.41665583 84.25 531.25 C76.75 518.25 76.75 518.25 74.8737793 514.99780273 C73.6279423 512.83840605 72.38201182 510.67906331 71.13598633 508.51977539 C67.94651047 502.99232403 64.75883115 497.46384879 61.57421875 491.93359375 C54.60677118 479.83813954 47.61025277 467.76214469 40.5 455.75 C37.85416403 458.14124874 36.24168745 460.68645073 34.48828125 463.78125 C33.61139648 465.31749023 33.61139648 465.31749023 32.71679688 466.88476562 C31.77416992 468.55055664 31.77416992 468.55055664 30.8125 470.25 C29.45732039 472.62665834 28.09805699 475.0009689 26.73828125 477.375 C26.38895538 477.98565308 26.03962952 478.59630615 25.67971802 479.22546387 C22.02187647 485.60803803 18.26520499 491.93018077 14.5 498.25 C9.26628714 507.04573004 4.09764967 515.87472363 -1 524.75 C-6.09765572 533.62528691 -11.26691813 542.45388792 -16.5 551.25 C-23.12877952 562.39292091 -29.63921813 573.59764706 -36.09765625 584.83984375 C-36.93707764 586.29173096 -36.93707764 586.29173096 -37.79345703 587.77294922 C-38.98314447 589.84834959 -40.15465266 591.93423156 -41.31201172 594.02783203 C-42.20750732 595.62473877 -42.20750732 595.62473877 -43.12109375 597.25390625 C-43.65017334 598.21240479 -44.17925293 599.17090332 -44.72436523 600.15844727 C-47.48672913 604.19013883 -50.163212 606.37867 -54.875 607.6875 C-59.37094621 607.76501631 -61.65434225 607.10012418 -65.5 604.75 C-66.66625977 603.24682617 -66.66625977 603.24682617 -67.75390625 601.41796875 C-68.1828418 600.70116943 -68.61177734 599.98437012 -69.05371094 599.24584961 C-69.53098633 598.42221924 -70.00826172 597.59858887 -70.5 596.75 C-71.04172852 595.81744385 -71.58345703 594.8848877 -72.14160156 593.92407227 C-73.70335267 591.2140879 -75.2555102 588.49892125 -76.80099487 585.77963257 C-77.8378227 583.95544748 -78.87678815 582.13249419 -79.91625977 580.30981445 C-82.47506589 575.82204714 -85.03041251 571.33231293 -87.58557129 566.84246826 C-92.54089162 558.13564818 -97.50860643 549.43621121 -102.5 540.75 C-103.00241211 539.8724707 -103.50482422 538.99494141 -104.02246094 538.09082031 C-105.27585982 535.90871423 -106.54089327 533.73402964 -107.8125 531.5625 C-108.46863281 530.43457031 -109.12476563 529.30664062 -109.80078125 528.14453125 C-111.34076136 525.47492934 -111.34076136 525.47492934 -114.5 524.75 C-117.46127103 524.67367186 -120.3978276 524.65538624 -123.35839844 524.68408203 C-124.2644281 524.68875488 -125.17045776 524.69342773 -126.10394287 524.69824219 C-128.07319072 524.70875011 -130.04242796 524.72141456 -132.01165009 524.73596573 C-135.13067304 524.7579627 -138.24963543 524.77205908 -141.36871338 524.78366089 C-150.23775537 524.817276 -159.10669738 524.85880709 -167.97558594 524.92138672 C-173.39957678 524.95909195 -178.82346378 524.98207639 -184.24756622 524.99569321 C-186.31279644 525.00373648 -188.3780129 525.01732981 -190.44316864 525.03662491 C-193.33691616 525.06318251 -196.23016891 525.07100441 -199.12402344 525.07470703 C-199.97311279 525.0870639 -200.82220215 525.09942078 -201.69702148 525.1121521 C-208.11572965 525.09055669 -212.99910695 524.05345412 -217.875 519.5625 C-219.91377305 516.03385433 -220.55185567 512.78038967 -220.5 508.75 C-219.56809325 506.06670024 -218.6737181 503.99816272 -217.3125 501.5625 C-216.9515625 500.8809082 -216.590625 500.19931641 -216.21875 499.49707031 C-215.00575467 497.23233907 -213.75824892 494.98988168 -212.5 492.75 C-212.06993652 491.98026855 -211.63987305 491.21053711 -211.19677734 490.41748047 C-208.25567604 485.17660283 -205.256385 479.97032693 -202.24511719 474.76953125 C-199.02045798 469.18998661 -195.82300971 463.5948453 -192.625 458 C-192.28607727 457.40734344 -191.94715454 456.81468689 -191.59796143 456.20407104 C-185.06858102 444.78356087 -178.62810338 433.31442485 -172.21777344 421.82666016 C-169.31716893 416.63146146 -166.40819597 411.44095169 -163.5 406.25 C-159.97348706 399.95483911 -156.4484211 393.65888824 -152.9296875 387.359375 C-152.04615601 385.77890381 -152.04615601 385.77890381 -151.14477539 384.16650391 C-149.97618709 382.07565134 -148.80868472 379.98419142 -147.64233398 377.89208984 C-144.78108231 372.77186959 -141.88563549 367.67657672 -138.91796875 362.6171875 C-138.35287598 361.6487793 -137.7877832 360.68037109 -137.20556641 359.68261719 C-136.1345964 357.85257929 -135.05522651 356.02742344 -133.96630859 354.20800781 C-133.49402832 353.39944336 -133.02174805 352.59087891 -132.53515625 351.7578125 C-132.1162915 351.05285645 -131.69742676 350.34790039 -131.26586914 349.62158203 C-130.19381305 347.5819553 -130.19381305 347.5819553 -131.5 344.75 C-132.4075 344.1725 -133.315 343.595 -134.25 343 C-140.16648385 338.90397272 -143.17599674 333.85147203 -144.5 326.75 C-144.91649693 319.44770485 -144.0539266 312.43282514 -142.93359375 305.23046875 C-142.61000249 303.05273787 -142.28643548 300.87500339 -141.96289062 298.69726562 C-141.44934319 295.30213276 -140.93291785 291.90745146 -140.4152832 288.51293945 C-139.91439617 285.21145501 -139.42363739 281.90857724 -138.93359375 278.60546875 C-138.77531601 277.59083054 -138.61703827 276.57619232 -138.45396423 275.5308075 C-138.31374344 274.58244522 -138.17352264 273.63408295 -138.02905273 272.65698242 C-137.90247787 271.82776779 -137.77590302 270.99855316 -137.64549255 270.14421082 C-137.43724521 266.71731354 -137.76225858 263.83870579 -139.70703125 260.96875 C-140.23683594 260.4015625 -140.76664062 259.834375 -141.3125 259.25 C-141.94414062 258.56292969 -142.57578125 257.87585938 -143.2265625 257.16796875 C-143.97679687 256.37003906 -144.72703125 255.57210938 -145.5 254.75 C-146.40483504 253.76802154 -147.30840455 252.78487597 -148.2109375 251.80078125 C-151.29663154 248.44060875 -154.39742415 245.09458055 -157.5 241.75 C-161.51073295 237.42642499 -165.51237058 233.09490258 -169.5 228.75 C-170.22703125 227.96367187 -170.9540625 227.17734375 -171.703125 226.3671875 C-178.04454238 219.35965485 -180.96177383 212.93188643 -180.75390625 203.453125 C-179.75144205 192.78073688 -173.28750337 187.03610142 -165.89648438 180.09716797 C-164.12466179 178.38791674 -162.52318151 176.5695346 -160.9375 174.6875 C-158.11934456 171.37323896 -155.09494832 168.30334955 -152 165.25 C-148.10602053 161.39887038 -144.38708686 157.48029042 -140.83984375 153.30859375 C-139.77935864 152.07496821 -138.65031749 150.90031749 -137.5 149.75 C-136.75487184 143.23859152 -137.73538896 136.53859593 -138.59375 130.078125 C-138.82172211 128.26043015 -139.04958319 126.44272137 -139.27734375 124.625 C-139.63669439 121.81668696 -139.9988604 119.00876804 -140.36376953 116.20117188 C-144.58734801 83.49286069 -144.58734801 83.49286069 -137.5 73.75 C-130.4402353 65.4990095 -120.0529193 64.29310529 -109.859375 62.59375 C-107.63278511 62.20718897 -105.40622343 61.82046544 -103.1796875 61.43359375 C-99.70206579 60.83789459 -96.22390611 60.24558316 -92.74511719 59.65673828 C-89.36496748 59.08197021 -85.98715737 58.49474627 -82.609375 57.90625 C-81.56972595 57.73428101 -80.5300769 57.56231201 -79.45892334 57.38513184 C-71.06197346 55.99816096 -71.06197346 55.99816096 -64.86938477 50.51123047 C-64.39815186 49.63869629 -63.92691895 48.76616211 -63.44140625 47.8671875 C-62.89750244 46.87630127 -62.35359863 45.88541504 -61.79321289 44.86450195 C-60.93651001 43.26094849 -60.93651001 43.26094849 -60.0625 41.625 C-59.15649048 39.97407349 -59.15649048 39.97407349 -58.23217773 38.28979492 C-55.66589677 33.61209675 -53.12999251 28.9183021 -50.59765625 24.22216797 C-48.76377925 20.82940019 -46.91351655 17.44593815 -45.0625 14.0625 C-44.50828369 13.01884277 -43.95406738 11.97518555 -43.38305664 10.89990234 C-39.53135323 3.86836466 -35.2030552 -2.54170014 -27.25 -5.1875 C-17.19671015 -7.85607694 -8.90483406 -4.59169037 0 0 Z M-19.5 20.75 C-20.03403442 21.75075562 -20.03403442 21.75075562 -20.57885742 22.77172852 C-27.14745766 35.06540013 -33.75493133 47.33660077 -40.5625 59.5 C-41.08545654 60.44431885 -41.60841309 61.3886377 -42.1472168 62.36157227 C-46.66682743 70.38338884 -50.53149677 76.49965716 -59.5 79.75 C-63.19557445 80.77013626 -66.9179641 81.4966436 -70.6875 82.1875 C-71.75379639 82.39286377 -72.82009277 82.59822754 -73.91870117 82.80981445 C-80.08209119 83.98080967 -86.2599938 85.06123159 -92.4453125 86.109375 C-93.10314224 86.22116592 -93.76097198 86.33295685 -94.43873596 86.44813538 C-97.65881641 86.99386753 -100.880106 87.52926863 -104.10424805 88.05053711 C-105.2725415 88.24397705 -106.44083496 88.43741699 -107.64453125 88.63671875 C-108.67940674 88.80389404 -109.71428223 88.97106934 -110.78051758 89.14331055 C-113.33755706 89.7137606 -115.20020445 90.54095487 -117.5 91.75 C-117.6369366 98.35224607 -117.29537043 104.69862039 -116.40625 111.23828125 C-116.17831491 113.01496491 -115.9504526 114.79165792 -115.72265625 116.56835938 C-115.36302139 119.31308287 -115.00067406 122.05742461 -114.63623047 124.80151367 C-110.54401834 155.81602751 -110.54401834 155.81602751 -116.5 164.75 C-121.74421814 171.3977537 -127.93431524 177.21966909 -133.9453125 183.1640625 C-136.63695593 185.88863123 -139.12779602 188.72037384 -141.6015625 191.640625 C-144.95104235 195.36226928 -148.62018819 198.78015223 -152.2421875 202.234375 C-154.94739768 205.09456497 -154.94739768 205.09456497 -155.5 208.75 C-154.09851059 210.72397781 -154.09851059 210.72397781 -152 212.5 C-149.27706352 215.05862135 -146.67707637 217.59589821 -144.25 220.4375 C-141.15699506 224.02960347 -137.96920744 227.52154123 -134.75 231 C-134.23920898 231.55558594 -133.72841797 232.11117187 -133.20214844 232.68359375 C-130.64449942 235.46037842 -128.06548 238.20711907 -125.421875 240.90234375 C-117.61733691 248.94182681 -113.32526943 255.45421914 -113.38883972 266.87548828 C-113.58275675 271.89002013 -114.31079579 276.81545466 -115.03125 281.77734375 C-115.18662231 282.88807755 -115.34199463 283.99881134 -115.5020752 285.14320374 C-115.99495208 288.65891141 -116.49703046 292.17322335 -117 295.6875 C-117.5012809 299.22698529 -118.0006249 302.76673117 -118.4979248 306.30677795 C-118.80683976 308.50185016 -119.11835713 310.69655802 -119.43273926 312.89085388 C-119.64295715 314.37368614 -119.64295715 314.37368614 -119.85742188 315.88647461 C-119.98177612 316.75566025 -120.10613037 317.62484589 -120.23425293 318.52037048 C-120.5591756 320.87225078 -120.5591756 320.87225078 -120.5 323.75 C-112.79621144 325.94063571 -105.0265509 327.42329294 -97.14453125 328.80078125 C-96.11165985 328.98365692 -95.07878845 329.16653259 -94.01461792 329.35494995 C-89.6875263 330.12074428 -85.36065375 330.88558754 -81.02758789 331.61694336 C-77.83364188 332.15871582 -74.64544971 332.72748573 -71.45703125 333.30078125 C-70.00826347 333.53550896 -70.00826347 333.53550896 -68.53022766 333.77497864 C-60.87077586 335.18829922 -54.61263813 338.03765101 -49.52832031 344.1015625 C-49.13225586 344.85179687 -48.73619141 345.60203125 -48.328125 346.375 C-47.85955078 347.23738281 -47.39097656 348.09976562 -46.90820312 348.98828125 C-46.44349609 349.89964844 -45.97878906 350.81101562 -45.5 351.75 C-44.99919922 352.69230469 -44.49839844 353.63460938 -43.98242188 354.60546875 C-42.38021195 357.641446 -40.81286565 360.69360276 -39.25 363.75 C-35.1849504 371.61572475 -31.11111113 379.47473792 -26.875 387.25 C-26.4737793 388.0028125 -26.07255859 388.755625 -25.65917969 389.53125 C-23.52466334 393.68251563 -23.52466334 393.68251563 -19.5 395.75 C-16.94043291 394.84901286 -16.94043291 394.84901286 -14.14453125 393.390625 C-13.05793213 392.85663086 -11.97133301 392.32263672 -10.85180664 391.77246094 C-9.68383545 391.18754883 -8.51586426 390.60263672 -7.3125 390 C-4.87204019 388.79748694 -2.42801818 387.60227786 0.015625 386.40625 C0.63630356 386.10128601 1.25698212 385.79632202 1.89646912 385.4821167 C8.19870065 382.39088574 14.557349 379.42684678 20.9375 376.5 C21.94256592 376.0349707 22.94763184 375.56994141 23.9831543 375.09082031 C24.91554932 374.66381836 25.84794434 374.23681641 26.80859375 373.796875 C27.62126709 373.42401367 28.43394043 373.05115234 29.27124023 372.66699219 C35.85315967 369.95895304 42.45045207 369.67711878 49.0625 372.41796875 C54.93045564 374.86665137 60.6553251 377.60090171 66.375 380.375 C67.45257568 380.89481445 68.53015137 381.41462891 69.64038086 381.95019531 C79.64129683 386.78832706 89.58333603 391.74180769 99.5 396.75 C102.28705673 393.42477374 104.51178939 390.14920909 106.53125 386.3125 C107.08868896 385.26223633 107.64612793 384.21197266 108.22045898 383.12988281 C108.80770752 382.01452148 109.39495605 380.89916016 110 379.75 C111.2496268 377.41053851 112.50059995 375.07186084 113.75390625 372.734375 C114.06820084 372.14750916 114.38249542 371.56064331 114.70631409 370.95599365 C117.74603652 365.28278597 120.806272 359.62326476 123.9375 354 C124.39640625 353.15050781 124.8553125 352.30101562 125.328125 351.42578125 C130.02220176 343.07925283 135.20532327 338.49126833 144.5 335.75 C148.67461485 334.84354344 152.87566808 334.15946339 157.09375 333.48828125 C158.28101685 333.29276169 159.46828369 333.09724213 160.69152832 332.89579773 C164.45981222 332.27703142 168.22982203 331.66960742 172 331.0625 C174.5652267 330.64332732 177.13033239 330.22341337 179.6953125 329.80273438 C185.96216628 328.77657093 192.23047338 327.75969743 198.5 326.75 C197.94842118 318.9970127 197.28086839 311.28565565 196.30859375 303.57421875 C196.08388712 301.7389442 195.85928061 299.90365738 195.63476562 298.06835938 C195.28530721 295.23993804 194.93428266 292.41172381 194.58129883 289.58374023 C194.23625124 286.81022619 193.89711799 284.03603546 193.55859375 281.26171875 C193.45236191 280.42509201 193.34613007 279.58846527 193.23667908 278.72648621 C191.84930033 267.29379014 192.45726678 259.35744022 199.578125 250.046875 C203.39195627 245.48888153 207.6900355 241.39924002 211.9375 237.25 C217.50553623 231.78776037 222.99063159 226.34543918 228.06323242 220.41601562 C229.7701658 218.43672703 231.57076514 216.57863823 233.4375 214.75 C234.02402344 214.1725 234.61054687 213.595 235.21484375 213 C235.63894531 212.5875 236.06304688 212.175 236.5 211.75 C234.86560877 207.74093445 232.05995694 204.90349263 229.125 201.8125 C228.03373304 200.64724884 226.94259064 199.48188102 225.8515625 198.31640625 C225.2937207 197.72359863 224.73587891 197.13079102 224.16113281 196.52001953 C221.09041254 193.24801454 218.0549018 189.94341169 215.02001953 186.63818359 C212.44637762 183.84001274 209.85241453 181.06606276 207.21875 178.32421875 C198.82221282 169.53474328 193.89390478 163.18706124 193.5 150.75 C193.76550977 146.82431938 194.33056206 142.96863409 194.93359375 139.08203125 C195.16877464 137.46345467 195.16877464 137.46345467 195.40870667 135.81217957 C195.90703911 132.39384755 196.42127574 128.97817176 196.9375 125.5625 C197.44768234 122.13581943 197.95436667 118.70868928 198.45558167 115.28068542 C198.76697991 113.15622516 199.0838755 111.03256112 199.40708923 108.90986633 C200.16468137 103.79366489 200.68112298 98.92216776 200.5 93.75 C196.45919548 92.87099076 192.41720052 91.99756551 188.375 91.125 C187.13137695 90.85502197 185.88775391 90.58504395 184.60644531 90.30688477 C177.8336142 88.84493268 171.05454718 87.45718245 164.2421875 86.19140625 C162.89204763 85.93658422 161.54194949 85.68154105 160.19189453 85.42626953 C157.61453624 84.939239 155.03619756 84.47383206 152.45263672 84.01904297 C142.77401013 82.18958658 136.4353331 79.79355526 130.5 71.75 C129.37082542 69.84149332 128.28974233 67.90397758 127.25 65.9453125 C126.34519897 64.24906738 126.34519897 64.24906738 125.42211914 62.51855469 C124.78124362 61.3041257 124.14054077 60.08960558 123.5 58.875 C122.83817256 57.62903872 122.17597782 56.38327247 121.51342773 55.13769531 C115.44356492 43.70960307 109.45192586 32.2398925 103.5 20.75 C90.63077044 26.48777862 77.82604892 32.35678976 65.05957031 38.3190918 C61.87637174 39.8033695 58.68868756 41.27756461 55.5 42.75 C54.78320068 43.09071533 54.06640137 43.43143066 53.32788086 43.7824707 C49.6960318 45.45340877 46.68625441 46.18202975 42.6875 46.1875 C41.28564453 46.21650391 41.28564453 46.21650391 39.85546875 46.24609375 C31.51255969 45.01262524 23.70219563 40.49629539 16.22265625 36.765625 C14.30929841 35.82150591 12.39588539 34.87749864 10.48242188 33.93359375 C7.50346436 32.45856875 4.52548685 30.98160886 1.54858398 29.50244141 C-1.349262 28.06429152 -4.25056951 26.63332808 -7.15234375 25.203125 C-8.04606186 24.75632385 -8.93977997 24.30952271 -9.86058044 23.84918213 C-10.68896927 23.4416571 -11.51735809 23.03413208 -12.37084961 22.61425781 C-13.09791611 22.25325989 -13.8249826 21.89226196 -14.57408142 21.52032471 C-16.61853158 20.56431354 -16.61853158 20.56431354 -19.5 20.75 Z M-104.72705078 353.39916992 C-106.51999245 355.77650886 -108.02712099 358.12055419 -109.4609375 360.73046875 C-110.0075 361.71668213 -110.5540625 362.70289551 -111.1171875 363.71899414 C-111.69726562 364.78110107 -112.27734375 365.84320801 -112.875 366.9375 C-114.13271213 369.21099303 -115.39052749 371.48442895 -116.6484375 373.7578125 C-117.29549153 374.93248274 -117.94230136 376.10728753 -118.58886719 377.28222656 C-121.53971735 382.63657962 -124.51654539 387.97626029 -127.5 393.3125 C-128.07596924 394.34391113 -128.65193848 395.37532227 -129.24536133 396.43798828 C-133.26620189 403.6139355 -137.39157087 410.72296118 -141.5625 417.8125 C-146.82339034 426.75938313 -151.839109 435.81399646 -156.74633789 444.95898438 C-160.24240754 451.46300323 -163.82226767 457.90948924 -167.5 464.3125 C-167.98001465 465.14845703 -168.4600293 465.98441406 -168.95458984 466.84570312 C-169.94133187 468.5624044 -170.92848072 470.27887189 -171.91601562 471.99511719 C-174.87198444 477.13617022 -177.81554305 482.2841409 -180.75 487.4375 C-181.32363281 488.436604 -181.89726562 489.43570801 -182.48828125 490.46508789 C-183.01292969 491.38797607 -183.53757813 492.31086426 -184.078125 493.26171875 C-184.54637695 494.08115967 -185.01462891 494.90060059 -185.49707031 495.74487305 C-186.64911476 497.67445997 -186.64911476 497.67445997 -186.5 499.75 C-185.47571396 499.74333817 -184.45142792 499.73667633 -183.39610291 499.72981262 C-173.72981063 499.6689227 -164.06355741 499.62398953 -154.39711666 499.59456348 C-149.42783026 499.57892654 -144.45869905 499.55772424 -139.48950195 499.52368164 C-134.6914016 499.49101794 -129.89345025 499.47313216 -125.09524727 499.46536827 C-123.26726499 499.45983735 -121.43929061 499.44903678 -119.61137199 499.43280983 C-117.04534334 499.41094226 -114.47992563 499.40803695 -111.91381836 499.40942383 C-111.16287399 499.398638 -110.41192963 499.38785217 -109.63822937 499.3767395 C-104.54883339 499.40638457 -101.02884895 500.38731917 -96.5 502.75 C-93.40684225 505.98468143 -91.29252 509.63195222 -89.1015625 513.51953125 C-88.46387939 514.64447998 -87.82619629 515.76942871 -87.16918945 516.9284668 C-86.83585602 517.52106293 -86.50252258 518.11365906 -86.15908813 518.72421265 C-84.3921121 521.86534693 -82.61115925 524.99855045 -80.83203125 528.1328125 C-80.47104843 528.76964462 -80.11006561 529.40647675 -79.73814392 530.06260681 C-75.59513021 537.36298038 -71.35497233 544.60584005 -67.10595703 551.8449707 C-63.82758674 557.43937652 -60.61964338 563.0654524 -57.5 568.75 C-54.02977721 567.59325907 -53.87116553 567.14610745 -52.23046875 564.06640625 C-51.81958008 563.30851807 -51.40869141 562.55062988 -50.98535156 561.76977539 C-50.55706055 560.95887451 -50.12876953 560.14797363 -49.6875 559.3125 C-48.79164484 557.65555717 -47.89451815 555.99930115 -46.99609375 554.34375 C-46.56538574 553.54582031 -46.13467773 552.74789062 -45.69091797 551.92578125 C-44.27826473 549.34489447 -42.78577189 546.82187794 -41.25 544.3125 C-38.15047798 539.22104139 -35.33355998 533.99300794 -32.5 528.75 C-26.20836378 517.13105828 -19.73504581 505.63759327 -13.04711914 494.24194336 C-8.79741866 486.99509175 -4.6113631 479.71404024 -0.4564209 472.41265869 C0.5573214 470.63408566 1.57437464 468.85745332 2.59277344 467.08154297 C2.92531128 466.50157562 3.25784912 465.92160828 3.60046387 465.32406616 C3.93082642 464.74790558 4.26118896 464.171745 4.6015625 463.578125 C7.12847695 459.16819134 9.62006874 454.74118927 12.0859375 450.296875 C13.20252708 448.32257838 14.31968271 446.34860176 15.4375 444.375 C15.92033447 443.48409668 16.40316895 442.59319336 16.90063477 441.67529297 C20.86187753 434.76344511 25.86357399 430.29547534 33.5 427.75 C41.13454215 426.90409701 47.76479212 427.01776157 54.1953125 431.52734375 C58.54689039 435.72403497 61.23689403 440.88846744 64.08154297 446.15380859 C66.69475012 450.93674229 69.43517797 455.64816216 72.14862061 460.37469482 C73.54883099 462.81800888 74.94186721 465.26538262 76.33526611 467.71258545 C80.3447375 474.75191105 84.4054465 481.75974346 88.5 488.75 C94.21760746 498.51608451 99.84888439 508.32989499 105.45336914 518.16113281 C110.08812005 526.28964979 114.75386576 534.39953855 119.4375 542.5 C124.85923598 551.879434 130.22534783 561.28707388 135.5 570.75 C136.16 570.75 136.82 570.75 137.5 570.75 C137.89155273 570.04206299 138.28310547 569.33412598 138.68652344 568.60473633 C146.71353498 554.10058719 154.78305355 539.62591103 163.06054688 525.26269531 C164.5698451 522.62807908 166.05951022 519.98299091 167.546875 517.3359375 C168.53115202 515.59890281 169.51552344 513.86192161 170.5 512.125 C170.94504883 511.32449219 171.39009766 510.52398438 171.84863281 509.69921875 C176.32481493 501.84963237 176.32481493 501.84963237 181.11077881 500.19215393 C184.6197612 499.54277481 188.10989015 499.61989822 191.66503906 499.63647461 C192.4849231 499.63632858 193.30480713 499.63618256 194.14953613 499.6360321 C196.85492616 499.63672782 199.56024702 499.64450428 202.265625 499.65234375 C204.14320844 499.65420914 206.02079237 499.65563247 207.89837646 499.65663147 C212.83688707 499.66044711 217.77536821 499.67026929 222.71386719 499.68133545 C227.75455324 499.69157004 232.79524405 499.69613348 237.8359375 499.70117188 C247.72397127 499.71189239 257.61198318 499.7289574 267.5 499.75 C266.56700819 497.86303071 265.63154093 495.97728528 264.69506836 494.09204102 C264.17440292 493.04178238 263.65373749 491.99152374 263.11729431 490.90943909 C260.62984735 486.0501274 257.85404258 481.37651968 255.0625 476.6875 C249.90799219 467.94580795 244.8992405 459.13717248 240 450.25 C235.23901014 441.61705033 230.37978046 433.05641104 225.375 424.5625 C220.13660506 415.66515889 215.1478958 406.65880796 210.2644043 397.5625 C204.86228441 387.5166554 199.24931777 377.60086255 193.5 367.75 C193.08814453 367.04085449 192.67628906 366.33170898 192.25195312 365.60107422 C191.15826168 363.72714948 190.05164132 361.86181999 188.9375 360 C188.03837891 358.49179687 188.03837891 358.49179687 187.12109375 356.953125 C185.62012339 354.46965172 185.62012339 354.46965172 182.5 353.75 C177.92210028 354.23951591 173.40406119 355.08276841 168.87646484 355.90844727 C166.64361807 356.30915876 164.40677139 356.67528041 162.16796875 357.04101562 C160.73920026 357.29735309 159.31079967 357.55575143 157.8828125 357.81640625 C156.58746582 358.04271729 155.29211914 358.26902832 153.95751953 358.50219727 C147.59211162 360.7994434 144.96270678 366.33928611 141.86328125 372.046875 C141.54219894 372.63389694 141.22111664 373.22091888 140.89030457 373.82572937 C140.20933038 375.07251941 139.53126686 376.32090312 138.85595703 377.57077026 C137.79946725 379.52409602 136.73309776 381.47172824 135.6640625 383.41821289 C132.56432062 389.07021012 129.49449531 394.7343978 126.51171875 400.44921875 C126.07883545 401.26487305 125.64595215 402.08052734 125.19995117 402.92089844 C124.43270124 404.37016566 123.68002421 405.82730327 122.9465332 407.29394531 C119.59715978 413.57922809 114.65081059 417.48967576 108.0625 420.125 C92.7069865 422.81894974 80.53525103 414.32402536 67.2109375 407.62109375 C65.7873291 406.90542236 65.7873291 406.90542236 64.33496094 406.17529297 C62.47567954 405.24052852 60.61693617 404.30469297 58.75878906 403.36767578 C56.2002895 402.08466489 53.63305288 400.82115113 51.0625 399.5625 C50.3005835 399.17610352 49.53866699 398.78970703 48.75366211 398.39160156 C48.03186768 398.04194336 47.31007324 397.69228516 46.56640625 397.33203125 C45.94709229 397.02499268 45.32777832 396.7179541 44.68969727 396.40161133 C38.58627626 394.58535192 33.91410712 396.05182883 28.51953125 398.96875 C27.87284988 399.30273804 27.22616852 399.63672607 26.55989075 399.98083496 C25.18254694 400.69272446 23.80816233 401.41036453 22.43658447 402.13330078 C18.86559812 404.01068265 15.26692758 405.83321799 11.66796875 407.65625 C10.96087769 408.01509277 10.25378662 408.37393555 9.52526855 408.74365234 C3.81286567 411.62732527 -1.95137982 414.32423109 -7.875 416.75 C-8.62031982 417.06904297 -9.36563965 417.38808594 -10.13354492 417.71679688 C-16.40955839 420.19712895 -22.761441 420.82262278 -29.3046875 418.9453125 C-29.98789062 418.59210938 -30.67109375 418.23890625 -31.375 417.875 C-32.07367188 417.52695312 -32.77234375 417.17890625 -33.4921875 416.8203125 C-34.15476562 416.46710938 -34.81734375 416.11390625 -35.5 415.75 C-36.20382812 415.45867187 -36.90765625 415.16734375 -37.6328125 414.8671875 C-39.99394601 413.45445908 -40.34841961 412.22795668 -41.5 409.75 C-49.43538181 394.19168016 -57.73007249 378.85473795 -66.5 363.75 C-66.96849365 362.86908691 -67.4369873 361.98817383 -67.91967773 361.08056641 C-70.93576221 356.63262227 -75.01621225 356.29563105 -80.09375 355.3203125 C-82.05237233 354.95665306 -84.01108411 354.5933065 -85.97216797 354.24316406 C-87.9976415 353.8754282 -90.01562169 353.47702115 -92.03515625 353.078125 C-93.31261719 352.84867187 -94.59007812 352.61921875 -95.90625 352.3828125 C-97.07478516 352.16512207 -98.24332031 351.94743164 -99.44726562 351.72314453 C-102.55294721 351.45126494 -102.55294721 351.45126494 -104.72705078 353.39916992 Z " fill="#282D78" transform="translate(333.5,74.25)"/>
<path d="M0 0 C2.51702679 2.22704674 4.97072929 4.5092158 7.41796875 6.8125 C8.145 7.451875 8.87203125 8.09125 9.62109375 8.75 C30.32925888 27.81938947 42.11696432 58.4020871 43.53466797 86.09179688 C44.83881687 118.29973303 35.32248279 148.08787172 14.41796875 172.8125 C13.47630859 173.96298828 13.47630859 173.96298828 12.515625 175.13671875 C-5.44946606 196.52373191 -34.37868348 211.34775016 -62.06347656 214.59716797 C-99.21720828 217.7737472 -130.41221832 208.33246364 -159.2421875 184.625 C-181.79926293 165.10110164 -195.98547488 136.28654378 -199.3046875 106.79296875 C-201.51734132 75.03671175 -194.25314759 41.85927618 -173.26953125 17.0625 C-171.41285398 14.94114328 -169.51044396 12.86869909 -167.58203125 10.8125 C-166.84049805 10.01537598 -166.84049805 10.01537598 -166.08398438 9.20214844 C-122.6776192 -37.02535116 -48.23934154 -40.86842854 0 0 Z M-144.58203125 22.8125 C-145.51015625 23.61880859 -145.51015625 23.61880859 -146.45703125 24.44140625 C-162.93813122 39.6635333 -173.89911232 63.95630724 -174.8203125 86.2890625 C-175.23132506 105.17167966 -172.23538104 121.96295852 -163.58203125 138.8125 C-163.04707031 139.87984375 -162.51210938 140.9471875 -161.9609375 142.046875 C-157.63503228 150.05550528 -151.96642008 156.42811117 -145.58203125 162.8125 C-144.76605469 163.62847656 -143.95007813 164.44445312 -143.109375 165.28515625 C-122.58584516 184.74079511 -96.90398687 190.63371888 -69.46484375 189.94433594 C-43.19447028 188.74294691 -21.04030398 174.54697132 -3.70703125 155.75 C13.35868482 135.34717608 19.98257095 109.96665887 18.41796875 83.8125 C16.02095723 58.14804334 2.77553423 35.2082971 -16.45703125 18.4375 C-54.80864832 -11.94494988 -108.28241795 -10.11468301 -144.58203125 22.8125 Z " fill="#282D78" transform="translate(451.58203125,189.1875)"/>
<path d="M0 0 C3.76266417 1.77871397 5.51796464 3.33137031 7.9375 6.6875 C9.36928026 11.15128553 9.47522822 14.52845332 8 19 C6.0378524 22.0595189 3.60023097 24.47500176 1 27 C0.19433594 27.80566406 -0.61132812 28.61132812 -1.44140625 29.44140625 C-3.07555403 31.07555403 -4.71921075 32.70028416 -6.375 34.3125 C-8.3683027 36.35326229 -10.22290936 38.39979975 -12.07421875 40.5625 C-16.56714818 45.74318482 -21.39818739 50.58425278 -26.24487305 55.43017578 C-27.83216334 57.0196909 -29.41123553 58.61709657 -30.99023438 60.21484375 C-31.99951207 61.22704926 -33.00926004 62.23878611 -34.01953125 63.25 C-34.92807861 64.16265625 -35.83662598 65.0753125 -36.77270508 66.015625 C-39 68 -39 68 -41 68 C-41 68.66 -41 69.32 -41 70 C-42.875 72.125 -42.875 72.125 -45 74 C-45.66 74 -46.32 74 -47 74 C-47 74.66 -47 75.32 -47 76 C-48.50390625 77.48046875 -48.50390625 77.48046875 -50.5625 79.1875 C-53.43196497 81.61082908 -56.10135169 84.089639 -58.6875 86.8125 C-62.63879051 90.77268981 -65.11623446 91.9691186 -70.8125 92.0625 C-79.94099331 90.53529159 -87.83384233 79.35238045 -94.17480469 73.01049805 C-95.88719442 71.30032134 -97.60747044 69.59834064 -99.328125 67.89648438 C-100.42496709 66.80257234 -101.5213386 65.70818822 -102.6171875 64.61328125 C-103.38432571 63.85692131 -103.38432571 63.85692131 -104.16696167 63.08528137 C-108.11828401 59.10834139 -109.83428953 56.71234149 -110.375 51.125 C-110.23956526 45.9301104 -107.78430913 42.84803445 -104.25 39.1875 C-100.98577218 37.46471309 -97.65988983 36.70043606 -94 37 C-87.52226592 39.22553729 -83.27675089 44.39107743 -78.625 49.1875 C-77.79355469 50.03248047 -76.96210938 50.87746094 -76.10546875 51.74804688 C-74.06333644 53.82538837 -72.028561 55.90941808 -70 58 C-63.92273109 53.01334404 -58.40634981 47.52448401 -52.87602806 41.95119286 C-51.20128985 40.26356528 -49.52333716 38.57919212 -47.84455872 36.89558411 C-44.28936886 33.32904153 -40.7381603 29.75855123 -37.1875 26.1875 C-33.05364012 22.03002759 -28.91815831 17.87419526 -24.77846718 13.72252846 C-23.124524 12.06209873 -21.47361593 10.39869095 -19.82279968 8.7351532 C-18.81454942 7.72327254 -17.8061597 6.71153081 -16.79760742 5.69995117 C-15.47692513 4.37141365 -15.47692513 4.37141365 -14.12956238 3.01603699 C-9.94854323 -0.94209513 -5.51936055 -0.60195791 0 0 Z " fill="#282D78" transform="translate(424,237)"/>
</svg>
