<?xml version="1.0" encoding="UTF-8"?>
<svg version="1.1" xmlns="http://www.w3.org/2000/svg" width="750" height="750">
<path d="M0 0 C1.31444092 0.00491455 2.62888184 0.0098291 3.9831543 0.01489258 C13.72765048 0.13220916 22.75415535 0.91750576 32.1875 3.3125 C32.83799316 3.46283691 33.48848633 3.61317383 34.15869141 3.76806641 C52.99667937 8.15949279 71.22585125 17.07035351 86.1875 29.3125 C87.10668213 30.05089111 87.10668213 30.05089111 88.04443359 30.80419922 C114.52534668 52.23604035 134.13060384 84.06106585 138.75 118.22265625 C143.01422193 160.03475038 132.62510189 197.82928737 106.07568359 230.45532227 C95.43277106 243.25639135 82.09172515 254.74162866 67.1875 262.3125 C66.5275 262.3125 65.8675 262.3125 65.1875 262.3125 C65.19638245 263.06845963 65.20526489 263.82441925 65.2144165 264.60328674 C65.29520646 271.79477278 65.35578668 278.98603288 65.39474869 286.1778574 C65.41545417 289.87357304 65.44345099 293.56890778 65.48925781 297.2644043 C65.53333564 300.84359815 65.55676444 304.4224302 65.56700897 308.00187492 C65.57778866 310.00394013 65.6089104 312.00586364 65.64068604 314.00770569 C65.64541085 333.71513815 58.48652619 349.01716689 45.23828125 363.43359375 C40.75381077 367.81556205 35.85709515 370.7991882 30.3125 373.625 C29.67699219 373.95064941 29.04148437 374.27629883 28.38671875 374.61181641 C19.24052093 379.03539246 10.12650217 380.88005621 0 380.8125 C-0.99741211 380.80750488 -1.99482422 380.80250977 -3.02246094 380.79736328 C-12.00606755 380.58787101 -19.58258547 378.82891803 -27.8125 375.3125 C-28.8025 374.8896875 -29.7925 374.466875 -30.8125 374.03125 C-46.16628315 366.52883324 -57.02923349 352.644612 -63.05859375 336.88671875 C-65.66405327 327.99035695 -66.08087926 319.88881598 -66.0078125 310.65234375 C-66.00407474 309.2527334 -66.00123138 307.85312039 -65.99923706 306.45350647 C-65.99166061 302.79896613 -65.97206486 299.14458892 -65.9498291 295.4901123 C-65.92924041 291.74929001 -65.92020771 288.00844094 -65.91015625 284.26757812 C-65.88881224 276.949145 -65.85475024 269.6308455 -65.8125 262.3125 C-67.21230103 261.86571899 -67.21230103 261.86571899 -68.64038086 261.40991211 C-79.30178974 257.72153891 -88.51436999 248.75911164 -96.8125 241.3125 C-97.60398437 240.60609375 -98.39546875 239.8996875 -99.2109375 239.171875 C-122.4194866 217.22010653 -138.16090519 183.87463706 -140.00537109 151.97705078 C-140.91412164 112.84570148 -132.49502608 78.64807303 -106.8125 48.3125 C-106.049375 47.39597656 -105.28625 46.47945313 -104.5 45.53515625 C-99.16802619 39.35577946 -93.28602001 34.26333922 -86.8125 29.3125 C-85.32556641 28.12527344 -85.32556641 28.12527344 -83.80859375 26.9140625 C-59.87893108 8.35035618 -29.97129686 -0.13363615 0 0 Z M-88.33984375 58.83203125 C-107.8037565 79.3156251 -118.40037784 106.27178855 -119.8125 134.3125 C-119.86664063 135.22257812 -119.92078125 136.13265625 -119.9765625 137.0703125 C-120.89388108 166.34111454 -110.32387665 195.5814805 -90.8125 217.3125 C-90.20277344 218.06402344 -89.59304688 218.81554687 -88.96484375 219.58984375 C-79.91943556 230.51731139 -67.9309586 238.20300429 -55.8125 245.3125 C-47.95878821 250.01992358 -47.95878821 250.01992358 -46.8125 252.3125 C-46.3175 260.2325 -46.3175 260.2325 -45.8125 268.3125 C-15.7825 268.3125 14.2475 268.3125 45.1875 268.3125 C45.5175 263.0325 45.8475 257.7525 46.1875 252.3125 C50.17264753 248.32735247 53.42402999 245.79286352 58.1875 243.125 C88.03663838 225.72489543 106.77806874 199.38326951 116.1875 166.3125 C123.73114369 137.46469675 117.8368211 105.87887799 103.1875 80.3125 C102.63320313 79.33152344 102.07890625 78.35054687 101.5078125 77.33984375 C84.83670599 49.62113796 57.54911043 31.62517985 26.6796875 23.375 C-16.51655924 13.50157217 -57.48453826 28.07210537 -88.33984375 58.83203125 Z M-45.8125 288.3125 C-45.8125 295.5725 -45.8125 302.8325 -45.8125 310.3125 C-15.7825 310.3125 14.2475 310.3125 45.1875 310.3125 C45.1875 303.0525 45.1875 295.7925 45.1875 288.3125 C15.1575 288.3125 -14.8725 288.3125 -45.8125 288.3125 Z M-41.8125 331.3125 C-38.40832433 341.52502701 -31.52848522 349.43411672 -22.140625 354.85546875 C-10.66796875 360.38114076 1.07288847 362.025182 13.46875 358.3359375 C24.86494958 353.87530383 33.98669742 346.53262944 40.1875 335.875 C41.30868083 333.46042582 41.30868083 333.46042582 41.1875 331.3125 C13.7975 331.3125 -13.5925 331.3125 -41.8125 331.3125 Z " fill="#282D78" transform="translate(375.8125,221.6875)"/>
<path d="M0 0 C1.69296707 0.41647041 1.69296707 0.41647041 3.4201355 0.84135437 C5.79585929 1.42805898 8.17094139 2.01736746 10.54541016 2.60913086 C14.17198404 3.50980556 17.80257899 4.39281479 21.43359375 5.27539062 C23.74766448 5.84917805 26.0614759 6.4240125 28.375 7 C29.99705856 7.3908654 29.99705856 7.3908654 31.65188599 7.78962708 C38.5829299 9.54314329 43.92961792 11.01161438 48.0546875 17.19921875 C48.9632062 21.82440487 48.88060212 23.92562918 46.2890625 27.921875 C42.38351874 32.75066805 38.16631999 37.23696349 33.70703125 41.5546875 C32.04623149 43.20763478 30.51846359 44.92173513 28.9921875 46.69921875 C24.84592665 51.51605937 20.47933723 56.12382206 16.11694336 60.74414062 C13.41121981 63.62162631 10.76682714 66.5058087 8.2734375 69.5703125 C5.87207126 72.41559328 4.66969619 73.42457403 1.0546875 74.19921875 C-2.57537294 74.07184821 -5.00396483 73.89563324 -7.95703125 71.7109375 C-10.76194859 68.16759399 -11.86309781 64.4154389 -13.1953125 60.13671875 C-13.5975 58.9137207 -13.5975 58.9137207 -14.0078125 57.66601562 C-15.9453125 51.65086894 -15.9453125 51.65086894 -15.9453125 48.19921875 C-17.23127319 48.64382446 -17.23127319 48.64382446 -18.54321289 49.09741211 C-29.06303904 52.67553215 -39.67458439 55.79950769 -50.3828125 58.76171875 C-51.34385895 59.02845398 -52.3049054 59.29518921 -53.29507446 59.57000732 C-74.81445858 65.51967574 -96.46952821 70.92833425 -118.1328125 76.32421875 C-119.44423092 76.65086958 -119.44423092 76.65086958 -120.78214264 76.98411942 C-136.63395351 80.93103334 -152.49074227 84.85777032 -168.3527832 88.7633667 C-248.00258648 108.00138804 -248.00258648 108.00138804 -323.9453125 138.19921875 C-324.75532715 138.59463867 -325.5653418 138.99005859 -326.39990234 139.39746094 C-345.64499383 148.89758243 -366.90116049 160.81811836 -375.3828125 181.63671875 C-378.574507 191.46050573 -377.38731525 199.97456886 -372.9453125 209.19921875 C-370.12605802 214.12160691 -367.03825494 218.26369717 -362.9453125 222.19921875 C-362.9453125 222.85921875 -362.9453125 223.51921875 -362.9453125 224.19921875 C-362.37167969 224.45703125 -361.79804688 224.71484375 -361.20703125 224.98046875 C-358.73844157 226.31069324 -356.87943004 227.86674201 -354.7578125 229.69921875 C-338.19676735 243.02474856 -317.58832806 251.99792199 -297.78881836 259.32666016 C-295.9453125 260.19921875 -295.9453125 260.19921875 -294.9453125 262.19921875 C-295.47436523 264.07861328 -295.47436523 264.07861328 -296.37890625 266.33203125 C-296.69794922 267.13769531 -297.01699219 267.94335938 -297.34570312 268.7734375 C-297.68794922 269.61519531 -298.03019531 270.45695312 -298.3828125 271.32421875 C-298.72119141 272.17371094 -299.05957031 273.02320313 -299.40820312 273.8984375 C-300.24708207 276.00154246 -301.09302375 278.1015203 -301.9453125 280.19921875 C-316.52634074 275.49095974 -330.41684606 269.37744729 -343.9453125 262.19921875 C-344.56035645 261.87308594 -345.17540039 261.54695313 -345.80908203 261.2109375 C-358.43113629 254.43960837 -369.63571402 246.14186542 -379.9453125 236.19921875 C-380.64398438 235.53792969 -381.34265625 234.87664062 -382.0625 234.1953125 C-392.88270428 223.10144547 -398.80268692 207.48630815 -399.3203125 192.13671875 C-398.70013929 173.20903249 -388.86199799 157.56521617 -375.5078125 144.76171875 C-313.08486135 90.95543264 -213.01660263 77.15108986 -135.32577515 58.21011353 C-115.51616518 53.37828725 -95.76708215 48.35055377 -76.06669998 43.0904541 C-74.16975131 42.58407926 -72.27248548 42.07889303 -70.37521362 41.57373047 C-57.86141077 38.23612965 -45.37437498 34.85881609 -33.02250671 30.95687866 C-29.47225181 29.85387339 -26.69817795 29.19921875 -22.9453125 29.19921875 C-23.30625 28.00425781 -23.6671875 26.80929688 -24.0390625 25.578125 C-24.50844387 23.97284073 -24.97715824 22.36736132 -25.4453125 20.76171875 C-25.80302734 19.58706055 -25.80302734 19.58706055 -26.16796875 18.38867188 C-27.6994604 13.07220799 -28.84781132 7.73852475 -27.9453125 2.19921875 C-20.63257843 -7.2875714 -9.98616556 -2.47168683 0 0 Z M-2.9453125 21.19921875 C-0.9653125 28.12921875 1.0146875 35.05921875 3.0546875 42.19921875 C6.41291473 40.52010514 7.72060344 39.76526847 10.0703125 37.16015625 C10.59882812 36.58007812 11.12734375 36 11.671875 35.40234375 C12.21070313 34.7990625 12.74953125 34.19578125 13.3046875 33.57421875 C13.85898437 32.96320313 14.41328125 32.3521875 14.984375 31.72265625 C16.3464716 30.2196531 17.70130351 28.71007195 19.0546875 27.19921875 C16.29923052 25.71257892 13.78458062 24.78419585 10.7265625 24.12890625 C10.0056543 23.97147949 9.28474609 23.81405273 8.54199219 23.65185547 C7.18702637 23.36592529 7.18702637 23.36592529 5.8046875 23.07421875 C2.9171875 22.45546875 0.0296875 21.83671875 -2.9453125 21.19921875 Z " fill="#282D78" transform="translate(515.9453125,73.80078125)"/>
<path d="M0 0 C4.36333898 0.59063121 8.08585212 1.66843201 12.15625 3.3359375 C13.3333252 3.81780518 14.51040039 4.29967285 15.72314453 4.79614258 C16.98247365 5.32152493 18.2414177 5.8478311 19.5 6.375 C20.13983826 6.64122162 20.77967651 6.90744324 21.43890381 7.18173218 C37.44656313 13.85794901 53.85355348 20.84471394 68 31 C69.54300781 32.10214844 69.54300781 32.10214844 71.1171875 33.2265625 C82.81476036 41.79589588 92.88575591 51.23033154 100 64 C100.39703125 64.62777344 100.7940625 65.25554687 101.203125 65.90234375 C107.38726946 76.44769456 108.32397061 91.59288552 105.75390625 103.29296875 C99.00259966 127.53470691 79.62831783 144.40198795 58.44238281 156.45507812 C-7.1262262 192.62273229 -82.75697963 207.23594309 -154.8001709 225.19729614 C-191.67390508 234.39100104 -228.48484861 243.68138272 -264.91015625 254.5390625 C-265.64364792 254.75751831 -266.37713959 254.97597412 -267.13285828 255.2010498 C-270.91737702 256.33884772 -274.65221651 257.56299163 -278.37109375 258.8984375 C-282.91128945 260.27662392 -282.91128945 260.27662392 -286 259 C-287.1389453 256.51530091 -287.97782986 254.28325435 -288.75 251.6875 C-288.97042969 251.01009766 -289.19085938 250.33269531 -289.41796875 249.63476562 C-290.4867464 246.23923912 -291 243.59199487 -291 240 C-245.53390922 225.47572481 -199.30065835 214.00811456 -153.00474358 202.48996735 C-37.31543769 178.44648711 -37.31543769 178.44648711 66 125 C66.6496875 124.525625 67.299375 124.05125 67.96875 123.5625 C75.83247483 117.55747376 83.42604135 106.86235794 85 97 C86.32596346 84.67533962 82.74334008 75.31936652 75.24609375 65.62109375 C63.64092988 52.07837209 47.94953889 43.42799582 32 36 C31.14422363 35.59749023 30.28844727 35.19498047 29.40673828 34.78027344 C17.78217293 29.32861061 6.11171025 24.26859702 -6 20 C-5.44392959 14.98258308 -4.31880666 10.74164732 -2.4375 6.0625 C-1.98246094 4.91910156 -1.52742188 3.77570313 -1.05859375 2.59765625 C-0.70925781 1.74042969 -0.35992188 0.88320313 0 0 Z " fill="#282D78" transform="translate(527,421)"/>
<path d="M0 0 C2.26093647 0.00850982 4.51934182 -0.02028595 6.7800293 -0.05200195 C8.23380459 -0.05361444 9.6875843 -0.05303552 11.14135742 -0.05004883 C12.44903076 -0.05190186 13.7567041 -0.05375488 15.10400391 -0.05566406 C21.23510821 0.76928319 25.95489762 3.70380334 29.87182617 8.60620117 C31.07798579 10.91555557 31.23633102 12.92629256 31.52026367 15.50854492 C32.03098465 18.86615611 32.31772679 20.04352942 35.03198242 22.16479492 C37.60461399 23.45674421 40.10384919 24.53215612 42.83276367 25.44604492 C43.5159668 25.69225586 44.19916992 25.9384668 44.90307617 26.19213867 C47.45501494 26.52792009 48.56843538 25.61594787 50.83276367 24.44604492 C53.56713867 24.07495117 53.56713867 24.07495117 56.58276367 24.00854492 C57.56760742 23.96858398 58.55245117 23.92862305 59.56713867 23.88745117 C65.49756227 24.90186573 69.23624075 27.31330732 72.85864258 32.15234375 C74.93073903 35.40860365 76.86833777 38.71268928 78.77026367 42.07104492 C79.44633693 43.22826698 80.12406051 44.38452653 80.8034668 45.53979492 C87.4464931 56.9585459 87.4464931 56.9585459 86.83276367 64.44604492 C85.28198285 69.28522846 83.28362738 72.28752367 79.08276367 75.13354492 C76.44957554 77.19677891 75.88741433 78.20349425 75.13745117 81.53198242 C74.6677475 87.75200218 74.6677475 87.75200218 77.27807617 93.11791992 C79.07632905 94.2854221 79.07632905 94.2854221 81.00854492 95.28588867 C84.35808835 97.41611222 85.65089261 100.76676775 86.83276367 104.44604492 C87.95000613 113.54359068 82.5547525 120.97883373 78.08276367 128.50854492 C77.58260742 129.3805957 77.08245117 130.25264648 76.56713867 131.15112305 C73.23509378 136.76544869 69.40100875 142.97316412 62.85717773 145.08300781 C57.59169359 146.02726432 53.6692921 145.99357169 48.95776367 143.57104492 C47.00901061 142.61626727 47.00901061 142.61626727 44.83276367 142.44604492 C41.95964086 143.69206391 39.58173451 145.21483018 37.03198242 147.02807617 C34.83276367 148.44604492 34.83276367 148.44604492 31.83276367 148.44604492 C31.93588867 149.60104492 32.03901367 150.75604492 32.14526367 151.94604492 C32.12731149 157.0085601 30.31765865 160.80030863 26.83276367 164.44604492 C21.73206339 167.86763269 17.92806962 169.04812566 11.73901367 168.97729492 C10.98865845 168.98112183 10.23830322 168.98494873 9.46520996 168.9888916 C7.88865812 168.99159721 6.31206034 168.98433113 4.7355957 168.9675293 C2.33857021 168.94609684 -0.05545899 168.96737359 -2.45239258 168.99291992 C-3.9927637 168.9902764 -5.53313297 168.98515091 -7.07348633 168.97729492 C-7.78098022 168.98539185 -8.48847412 168.99348877 -9.21740723 169.00183105 C-14.6909774 168.89998054 -17.73547086 167.41890623 -22.16723633 164.44604492 C-25.65213131 160.80030863 -27.46178415 157.0085601 -27.47973633 151.94604492 C-27.37661133 150.79104492 -27.27348633 149.63604492 -27.16723633 148.44604492 C-28.26938477 148.28362305 -28.26938477 148.28362305 -29.39379883 148.11791992 C-32.31759698 147.40961953 -34.06242625 146.36118815 -36.54223633 144.69604492 C-38.83397457 143.28795337 -38.83397457 143.28795337 -41.16723633 142.44604492 C-44.74231774 143.56134052 -44.74231774 143.56134052 -48.16723633 145.44604492 C-53.80972751 146.26911481 -58.39728908 145.73200858 -63.16723633 142.44604492 C-68.12487566 137.4511701 -71.83762309 131.61604474 -75.47973633 125.63354492 C-76.28507812 124.37574219 -76.28507812 124.37574219 -77.10668945 123.0925293 C-80.6217816 117.32565051 -82.44947003 112.26959316 -82.16723633 105.44604492 C-80.24261558 98.92371906 -76.75425806 95.17072608 -71.16723633 91.44604492 C-70.84014097 88.87961725 -70.84014097 88.87961725 -71.04223633 86.00854492 C-71.17471229 82.69222991 -71.2256718 80.62135134 -70.16723633 77.44604492 C-70.88911133 77.23979492 -71.61098633 77.03354492 -72.35473633 76.82104492 C-76.75879886 74.66794768 -79.1842129 71.27165986 -81.47973633 67.00854492 C-83.57142635 59.21224573 -81.08729055 54.04662595 -77.24633789 47.29858398 C-75.12119225 43.65025703 -72.960751 40.03082507 -70.72973633 36.44604492 C-70.28782959 35.71595215 -69.84592285 34.98585938 -69.390625 34.23364258 C-66.24898165 29.32635801 -63.55583836 26.76564182 -58.16723633 24.44604492 C-54.99926758 23.98510742 -54.99926758 23.98510742 -51.97973633 24.07104492 C-50.4734668 24.09038086 -50.4734668 24.09038086 -48.93676758 24.11010742 C-46.16723633 24.44604492 -46.16723633 24.44604492 -44.05395508 25.53198242 C-42.22173241 26.63305975 -42.22173241 26.63305975 -40.23754883 26.19213867 C-39.5543457 25.94592773 -38.87114258 25.6997168 -38.16723633 25.44604492 C-37.3396582 25.16889648 -36.51208008 24.89174805 -35.65942383 24.60620117 C-32.86571348 23.43451071 -30.55971144 22.31490004 -28.16723633 20.44604492 C-27.19661412 17.90782489 -26.9252564 15.64578755 -26.63598633 12.94995117 C-25.85679858 8.78778997 -23.4089642 6.05743682 -20.16723633 3.44604492 C-13.64683439 -0.41642402 -7.3316958 -0.04214075 0 0 Z M-6.16723633 21.44604492 C-6.70348633 23.15791992 -7.23973633 24.86979492 -7.79223633 26.63354492 C-11.55492692 36.75789796 -19.96961523 39.73561276 -29.16723633 44.44604492 C-30.16625977 45.00549805 -31.1652832 45.56495117 -32.19458008 46.14135742 C-35.47273738 47.58012817 -37.67213304 47.78785404 -41.22973633 47.69604492 C-42.23133789 47.68057617 -43.23293945 47.66510742 -44.26489258 47.64916992 C-46.98231853 47.45898668 -49.51417233 47.04967783 -52.16723633 46.44604492 C-53.36994692 48.18562633 -54.55396643 49.93814237 -55.72973633 51.69604492 C-56.72166992 53.1578418 -56.72166992 53.1578418 -57.73364258 54.64916992 C-59.36848169 57.25513731 -59.36848169 57.25513731 -59.03442383 59.68041992 C-57.72948338 62.3373257 -55.47585036 63.64419982 -53.16723633 65.44604492 C-48.14871793 72.7228966 -49.53231061 85.9138526 -50.16723633 94.44604492 C-50.85668615 97.76640141 -51.79726854 100.32251838 -53.16723633 103.44604492 C-53.49723633 104.43604492 -53.82723633 105.42604492 -54.16723633 106.44604492 C-56.72973633 107.63354492 -56.72973633 107.63354492 -59.16723633 108.44604492 C-59.16723633 112.38579447 -57.68934157 114.27540585 -55.66723633 117.63354492 C-55.01754883 118.72022461 -54.36786133 119.8069043 -53.69848633 120.92651367 C-53.19317383 121.75795898 -52.68786133 122.5894043 -52.16723633 123.44604492 C-49.40447456 122.92336026 -46.84114873 122.33734906 -44.16723633 121.44604492 C-35.38444011 120.77044521 -28.49591947 125.15601903 -20.97973633 129.19604492 C-20.18631836 129.60081055 -19.39290039 130.00557617 -18.57543945 130.42260742 C-13.13047058 133.36682233 -10.65374667 135.74496413 -8.16723633 141.44604492 C-7.50723633 143.75604492 -6.84723633 146.06604492 -6.16723633 148.44604492 C-0.22723633 148.44604492 5.71276367 148.44604492 11.83276367 148.44604492 C12.20401367 146.12573242 12.20401367 146.12573242 12.58276367 143.75854492 C13.30650597 139.23515557 14.58600251 136.71358536 17.83276367 133.44604492 C20.50158668 131.69172128 23.2922986 130.2512262 26.14526367 128.82104492 C26.87938477 128.43948242 27.61350586 128.05791992 28.36987305 127.66479492 C38.57566752 122.41247833 45.45211174 120.25147596 56.83276367 123.44604492 C59.47276367 118.82604492 62.11276367 114.20604492 64.83276367 109.44604492 C61.39943034 106.24604492 61.39943034 106.24604492 58.83276367 106.44604492 C55.56218647 98.97043989 54.48788142 92.01570162 54.52026367 83.94604492 C54.50415039 83.14295898 54.48803711 82.33987305 54.47143555 81.51245117 C54.46580369 74.56274237 55.635465 68.91130684 60.39526367 63.57104492 C61.19963867 62.86979492 62.00401367 62.16854492 62.83276367 61.44604492 C63.82276367 60.45604492 63.82276367 60.45604492 64.83276367 59.44604492 C62.19276367 55.15604492 59.55276367 50.86604492 56.83276367 46.44604492 C55.34776367 46.79666992 53.86276367 47.14729492 52.33276367 47.50854492 C43.8754898 49.50540125 37.86320687 47.44197652 30.70776367 43.13354492 C30.03100586 42.74231445 29.35424805 42.35108398 28.65698242 41.94799805 C16.10583919 34.6285209 16.10583919 34.6285209 12.83276367 28.44604492 C12.33776367 24.98104492 12.33776367 24.98104492 11.83276367 21.44604492 C5.89276367 21.44604492 -0.04723633 21.44604492 -6.16723633 21.44604492 Z " fill="#282D78" transform="translate(373.167236328125,276.553955078125)"/>
<path d="M0 0 C7.76344449 5.60566359 13.30837679 12.03578497 15.6015625 21.4765625 C17.27481321 32.07381698 15.39346358 41.40278734 9.3125 50.3125 C3.66878553 57.21508813 -4.17674029 61.70541916 -13 63 C-24.0069371 63.19892055 -32.36081237 61.06569505 -40.88671875 54.0859375 C-48.09158693 46.97429312 -50.93200827 38.49540952 -51.375 28.625 C-51.20320246 19.77742654 -47.37317212 11.62742632 -41.3203125 5.22265625 C-30.28538497 -5.25830905 -13.3720282 -8.26837077 0 0 Z M-26 19 C-28.99176362 22.21614589 -30.23342786 24.73617064 -30.4375 29.0625 C-29.82339482 34.58944665 -28.46968485 36.76412865 -24.25 40.3125 C-20.42096006 42.30065535 -18.26044487 42.54223844 -14 42 C-9.90386363 40.19007928 -7.26804672 37.8640796 -5 34 C-4.12186597 29.20130795 -4.5312725 25.88896595 -6.8125 21.5625 C-9.24212066 18.71637294 -11.09711544 17.2729651 -14.6875 16.1875 C-19.05792 15.94011774 -22.22197608 16.79749244 -26 19 Z " fill="#282D78" transform="translate(393,332)"/>
<path d="M0 0 C6.93 0 13.86 0 21 0 C21 9.57 21 19.14 21 29 C14.07 29 7.14 29 0 29 C0 19.43 0 9.86 0 0 Z " fill="#282D78" transform="translate(365,176)"/>
<path d="M0 0 C3.95374187 3.33116615 7.81041857 6.68428556 11.4375 10.375 C12.11683594 11.06335938 12.79617188 11.75171875 13.49609375 12.4609375 C13.99238281 12.96882812 14.48867188 13.47671875 15 14 C13.41987986 17.49883745 12.39126684 18.30436658 9 20 C8.75507813 20.56203125 8.51015625 21.1240625 8.2578125 21.703125 C6.43546175 25.03089594 3.68251075 27.26818655 0.875 29.75 C0.31167969 30.25660156 -0.25164062 30.76320312 -0.83203125 31.28515625 C-2.21651531 32.52884532 -3.60761488 33.76516305 -5 35 C-10.29012124 30.59156563 -15.18808428 25.92440206 -20 21 C-15.76183463 15.93376232 -11.32591037 11.19961931 -6.625 6.5625 C-5.98433594 5.92634766 -5.34367187 5.29019531 -4.68359375 4.63476562 C-3.12469121 3.08749668 -1.56348584 1.54263508 0 0 Z " fill="#282D78" transform="translate(499,223)"/>
<path d="M0 0 C5.06623768 4.23816537 9.80038069 8.67408963 14.4375 13.375 C15.07365234 14.01566406 15.70980469 14.65632812 16.36523438 15.31640625 C17.91250332 16.87530879 19.45736492 18.43651416 21 20 C17.66883385 23.95374187 14.31571444 27.81041857 10.625 31.4375 C9.93664062 32.11683594 9.24828125 32.79617187 8.5390625 33.49609375 C8.03117187 33.99238281 7.52328125 34.48867188 7 35 C1.47018659 30.45326453 -3.54606882 25.50318104 -8.546875 20.390625 C-10.95535698 17.89727164 -10.95535698 17.89727164 -14 16 C-12.34136495 11.67495164 -9.128959 8.90581175 -5.875 5.75 C-5.31167969 5.19570312 -4.74835938 4.64140625 -4.16796875 4.0703125 C-2.78313972 2.70895515 -1.39216796 1.35385141 0 0 Z " fill="#282D78" transform="translate(251,223)"/>
</svg>
