<?xml version="1.0" encoding="UTF-8"?>
<svg version="1.1" xmlns="http://www.w3.org/2000/svg" width="750" height="750">
<path d="M0 0 C1.1446875 -0.01583633 2.289375 -0.03167267 3.46875 -0.04798889 C5.30953125 -0.04054909 5.30953125 -0.04054909 7.1875 -0.03295898 C8.4559375 -0.03915756 9.724375 -0.04535614 11.03125 -0.05174255 C13.7114989 -0.05884259 16.39024516 -0.05761212 19.0703125 -0.04296875 C22.49720286 -0.02577325 25.92241764 -0.04929048 29.34912109 -0.08445835 C32.62860051 -0.11175122 35.90793907 -0.10169513 39.1875 -0.09545898 C41.02828125 -0.1153463 41.02828125 -0.1153463 42.90625 -0.13563538 C51.33966958 -0.04329839 51.33966958 -0.04329839 55.37231445 2.69995117 C57.26384814 5.65262635 58.31319359 8.11901002 59.23046875 11.49829102 C62.30127901 23.39008322 62.30127901 23.39008322 69.09960938 33.18676758 C73.40136466 35.41467948 77.99085229 36.09832785 82.72167969 36.92407227 C88.03162885 38.23631317 92.82673736 41.21757062 97.55444336 43.90673828 C100.65796355 45.52320458 102.93875295 46.69639677 106.47753906 46.23461914 C108.8196472 45.49017403 110.97016435 44.59128397 113.1875 43.53344727 C113.84790283 43.23543213 114.50830566 42.93741699 115.1887207 42.63037109 C117.71321467 41.46108091 120.19768812 40.21971186 122.6796875 38.96313477 C126.87302194 36.9193247 130.50876588 35.67263158 135.1875 35.53344727 C141.27071792 37.7797209 145.31886687 42.16345051 149.83203125 46.63891602 C150.64242355 47.43695145 151.45281586 48.23498688 152.2877655 49.0572052 C153.99363471 50.74355172 155.69540469 52.43405377 157.39331055 54.12841797 C159.99134119 56.7123355 162.61483063 59.26840109 165.24023438 61.82446289 C166.89746849 63.46930142 168.55312225 65.11573407 170.20703125 66.76391602 C171.38505058 67.9018586 171.38505058 67.9018586 172.58686829 69.06278992 C178.55001511 75.10161511 178.55001511 75.10161511 179.33496094 79.70410156 C179.18165309 83.68528306 178.5647806 86.02467544 176.80859375 89.57250977 C176.30005859 90.64758789 175.79152344 91.72266602 175.26757812 92.83032227 C174.16866035 95.05690478 173.06970173 97.28346714 171.97070312 99.51000977 C171.46345703 100.58250977 170.95621094 101.65500977 170.43359375 102.76000977 C169.95591553 103.72503418 169.4782373 104.69005859 168.98608398 105.68432617 C167.42129939 111.26703368 170.84162088 115.94248351 173.4375 120.78344727 C177.5074116 128.61509076 183.1875 139.60395539 183.1875 148.53344727 C183.72375 148.68040039 184.26 148.82735352 184.8125 148.97875977 C190.44368895 150.59031713 195.98636994 152.43622533 201.5 154.40844727 C202.18126953 154.64063965 202.86253906 154.87283203 203.56445312 155.11206055 C208.11536814 156.77558332 211.01114483 158.73135608 214.1875 162.53344727 C215.18249435 165.51843033 215.32540807 167.52571005 215.34863281 170.64404297 C215.36304413 172.20630363 215.36304413 172.20630363 215.37774658 173.80012512 C215.3841214 175.4876313 215.3841214 175.4876313 215.390625 177.20922852 C215.39632507 178.36714401 215.40202515 179.52505951 215.40789795 180.71806335 C215.41734996 183.17010585 215.42388272 185.62216106 215.42773438 188.07421875 C215.43743442 191.82062013 215.46845452 195.56647168 215.5 199.31274414 C215.50653066 201.69490234 215.51178088 204.07706447 215.515625 206.45922852 C215.5279718 207.57815994 215.5403186 208.69709137 215.55303955 209.84992981 C215.52440746 219.8766861 215.52440746 219.8766861 212.1875 224.53344727 C210.47192383 225.86254883 210.47192383 225.86254883 208.58203125 226.67407227 C207.87771973 226.98538086 207.1734082 227.29668945 206.44775391 227.61743164 C205.70187012 227.9197168 204.95598633 228.22200195 204.1875 228.53344727 C203.43259277 228.85120117 202.67768555 229.16895508 201.89990234 229.49633789 C199.56957736 230.45723612 197.22645115 231.3755962 194.875 232.28344727 C194.07771484 232.59926758 193.28042969 232.91508789 192.45898438 233.24047852 C191.69263672 233.53825195 190.92628906 233.83602539 190.13671875 234.14282227 C189.44924561 234.410625 188.76177246 234.67842773 188.0534668 234.9543457 C186.1875 235.53344727 186.1875 235.53344727 183.1875 235.53344727 C183.06375 236.19086914 182.94 236.84829102 182.8125 237.52563477 C180.53544408 248.02855519 176.33052445 258.32268715 170.97216797 267.64868164 C168.59076639 271.75900523 168.59076639 271.75900523 168.64453125 276.38500977 C169.15371094 277.42399414 169.66289063 278.46297852 170.1875 279.53344727 C170.92425146 281.16460325 171.65692119 282.79760569 172.38671875 284.43188477 C173.63281455 287.18243754 174.88422422 289.92797764 176.17382812 292.65844727 C178.79294894 298.51245644 179.83512075 302.25712924 178.1875 308.53344727 C175.75 311.34594727 175.75 311.34594727 173.1875 313.53344727 C172.5275 314.52344727 171.8675 315.51344727 171.1875 316.53344727 C170.5275 316.53344727 169.8675 316.53344727 169.1875 316.53344727 C169.1875 317.19344727 169.1875 317.85344727 169.1875 318.53344727 C168.5275 318.53344727 167.8675 318.53344727 167.1875 318.53344727 C167.1875 319.19344727 167.1875 319.85344727 167.1875 320.53344727 C166.5275 320.53344727 165.8675 320.53344727 165.1875 320.53344727 C164.93613281 321.12254883 164.68476562 321.71165039 164.42578125 322.31860352 C163.03294599 324.80988929 161.5666428 326.15645141 159.375 327.97094727 C156.13259236 330.6739989 153.14855787 333.52333573 150.1875 336.53344727 C148.29384856 338.45228112 146.39722788 340.36815055 144.5 342.28344727 C144.01466797 342.7771582 143.52933594 343.27086914 143.02929688 343.77954102 C138.40299603 348.43774738 138.40299603 348.43774738 134.42773438 348.75073242 C130.82477374 348.5091234 128.58263542 347.62561981 125.34375 346.05688477 C124.26222656 345.55157227 123.18070312 345.04625977 122.06640625 344.52563477 C119.81075086 343.44604941 117.55813714 342.36008611 115.30859375 341.26782227 C113.68630859 340.5137207 113.68630859 340.5137207 112.03125 339.74438477 C111.05349609 339.27307129 110.07574219 338.80175781 109.06835938 338.31616211 C103.7514903 336.87159582 99.49138385 339.79821602 94.875 342.28344727 C89.77960587 344.88222598 84.63607755 346.95349469 79.25 348.84594727 C78.5283667 349.10021484 77.8067334 349.35448242 77.06323242 349.61645508 C73.4670908 350.85114577 69.94072686 351.9091336 66.1875 352.53344727 C66.05698242 353.25725586 65.92646484 353.98106445 65.79199219 354.72680664 C64.801608 359.3251332 63.08305767 363.63521041 61.4375 368.03344727 C61.10234375 368.9705957 60.7671875 369.90774414 60.421875 370.87329102 C58.18759848 376.83982489 56.14051975 381.55693739 50.1875 384.53344727 C48.45772588 384.63930603 46.723933 384.68222277 44.9909668 384.69458008 C43.36368904 384.70899139 43.36368904 384.70899139 41.70353699 384.72369385 C40.52648697 384.72794373 39.34943695 384.7321936 38.13671875 384.73657227 C36.93062454 384.74227234 35.72453033 384.74797241 34.48188782 384.75384521 C31.92551555 384.76330572 29.36913102 384.76983335 26.81274414 384.77368164 C22.90163873 384.7833812 18.99105997 384.81439317 15.08007812 384.84594727 C12.59896146 384.85247771 10.11784103 384.85772802 7.63671875 384.86157227 C6.46574142 384.87391907 5.2947641 384.88626587 4.08830261 384.89898682 C2.99399429 384.89598572 1.89968597 384.89298462 0.7722168 384.88989258 C-0.18771683 384.89353821 -1.14765045 384.89718384 -2.13667297 384.90093994 C-5.32297837 384.4633392 -7.20778238 383.38605202 -9.8125 381.53344727 C-10.9296875 379.90454102 -10.9296875 379.90454102 -11.6875 377.97094727 C-12.15542969 376.80692383 -12.15542969 376.80692383 -12.6328125 375.61938477 C-13.02210938 374.60102539 -13.41140625 373.58266602 -13.8125 372.53344727 C-14.41268867 371.02508738 -15.01438459 369.5173268 -15.6171875 368.01000977 C-16.89341917 364.79307013 -18.16890342 361.57593063 -19.421875 358.34985352 C-19.68967773 357.6635083 -19.95748047 356.97716309 -20.23339844 356.27001953 C-20.8125 354.53344727 -20.8125 354.53344727 -20.8125 352.53344727 C-21.43253906 352.38649414 -22.05257812 352.23954102 -22.69140625 352.08813477 C-34.52647999 349.09060517 -45.57141562 344.54956418 -56.12890625 338.43969727 C-62.7215603 336.21335703 -71.91612178 342.67587161 -77.9375 345.51977539 C-79.27941406 346.12015625 -79.27941406 346.12015625 -80.6484375 346.73266602 C-81.44813965 347.10222412 -82.2478418 347.47178223 -83.07177734 347.85253906 C-86.9529143 348.81677307 -90.07858372 348.90854755 -93.8125 347.53344727 C-97.26004645 345.08744951 -100.13818493 342.16546478 -103.08984375 339.15063477 C-103.94179825 338.30300568 -104.79375275 337.45537659 -105.67152405 336.58206177 C-107.46411501 334.78985148 -109.24801584 332.9889123 -111.02368164 331.17993164 C-113.74256465 328.4160058 -116.49442836 325.68844948 -119.25195312 322.96313477 C-120.99166458 321.21520376 -122.72936535 319.46526874 -124.46484375 317.71313477 C-125.28766342 316.89932343 -126.11048309 316.08551208 -126.95823669 315.24703979 C-133.19199691 308.830451 -133.19199691 308.830451 -133.86743164 304.60400391 C-133.81388123 301.6106552 -133.54164551 299.79709364 -132.3125 297.09594727 C-131.94898438 296.25676758 -131.58546875 295.41758789 -131.2109375 294.55297852 C-130.44742005 292.90437798 -129.68085131 291.25712581 -128.89941406 289.61694336 C-128.2350265 288.22001748 -127.57794305 286.81959726 -126.92773438 285.41601562 C-126.27782619 284.01637361 -125.61031557 282.62474431 -124.92382812 281.24267578 C-123.42171829 278.00425189 -122.71718169 276.01808516 -123.4140625 272.47485352 C-123.87554687 271.50418945 -124.33703125 270.53352539 -124.8125 269.53344727 C-125.31265625 268.45450195 -125.8128125 267.37555664 -126.328125 266.26391602 C-126.90046875 265.09473633 -127.4728125 263.92555664 -128.0625 262.72094727 C-130.80440147 256.99830779 -133.14729788 251.20777198 -135.25 245.22094727 C-135.5087793 244.48577881 -135.76755859 243.75061035 -136.03417969 242.99316406 C-137.8125 237.81493437 -137.8125 237.81493437 -137.8125 235.53344727 C-138.88250244 235.34552612 -138.88250244 235.34552612 -139.97412109 235.15380859 C-144.98056114 234.05959183 -149.66716491 232.06590979 -154.4375 230.22094727 C-155.48679688 229.8297168 -156.53609375 229.43848633 -157.6171875 229.03540039 C-158.62265625 228.64674805 -159.628125 228.2580957 -160.6640625 227.85766602 C-162.03812256 227.33305786 -162.03812256 227.33305786 -163.43994141 226.79785156 C-166.64317721 225.09075563 -168.29218419 223.19518973 -169.38096619 219.71792603 C-169.86706903 217.25721191 -169.94692215 214.98576645 -169.95776367 212.47705078 C-169.96414352 211.47243301 -169.97052338 210.46781525 -169.97709656 209.43275452 C-169.97820938 208.35352219 -169.9793222 207.27428986 -169.98046875 206.16235352 C-169.98379715 205.04787338 -169.98712555 203.93339325 -169.99055481 202.78514099 C-169.9956156 200.42903048 -169.9979634 198.07291281 -169.99780273 195.71679688 C-169.9999895 192.11324258 -170.01815524 188.50999429 -170.03710938 184.90649414 C-170.0400434 182.61678165 -170.04202814 180.3270677 -170.04296875 178.03735352 C-170.05015427 176.96014542 -170.05733978 175.88293732 -170.06474304 174.77308655 C-170.06166641 173.76531662 -170.05858978 172.75754669 -170.05541992 171.71923828 C-170.05755745 170.39497581 -170.05755745 170.39497581 -170.05973816 169.04396057 C-169.65004822 164.88387441 -168.55173892 162.2482334 -165.54663086 159.3425293 C-162.7099255 157.46557719 -160.32459837 156.52759218 -157.06640625 155.58813477 C-145.58418305 152.40605744 -145.58418305 152.40605744 -136.20654297 145.61694336 C-134.01439632 141.30880152 -133.29854187 136.71658794 -132.43798828 131.99926758 C-131.0927808 126.69614673 -128.12982973 121.89721642 -125.43945312 117.16650391 C-123.84114115 114.09848363 -122.65618516 111.79664765 -123.08935547 108.29614258 C-123.83583259 105.93426232 -124.74988511 103.77051853 -125.8125 101.53344727 C-126.1520874 100.78023193 -126.4916748 100.0270166 -126.84155273 99.25097656 C-128.24963692 96.18019302 -129.70262221 93.13436513 -131.203125 90.10766602 C-133.49802952 85.20568246 -134.63366614 81.88767571 -132.8125 76.53344727 C-128.56678168 70.9626963 -123.45268206 66.0039541 -118.5234375 61.04125977 C-117.85712311 60.3692453 -117.19080872 59.69723083 -116.50430298 59.00485229 C-115.10906656 57.60025119 -113.71243493 56.1970347 -112.31445312 54.79516602 C-110.17896082 52.64986888 -108.0543685 50.49413304 -105.9296875 48.33813477 C-104.56576262 46.96768747 -103.20120156 45.59787296 -101.8359375 44.22875977 C-100.89045547 43.26475754 -100.89045547 43.26475754 -99.9258728 42.28128052 C-94.17317033 36.55746418 -94.17317033 36.55746418 -89.8125 35.53344727 C-82.0100974 35.82175145 -74.69167647 40.17884847 -67.83398438 43.51977539 C-66.56071289 44.12015625 -66.56071289 44.12015625 -65.26171875 44.73266602 C-64.50205811 45.10222412 -63.74239746 45.47178223 -62.9597168 45.85253906 C-57.47826744 47.59077241 -51.7452284 43.13980792 -46.93896484 40.70849609 C-42.98977032 38.78273607 -39.42758085 37.33108115 -35.078125 36.61938477 C-30.10688755 35.72161973 -25.72316427 34.91297449 -21.8125 31.53344727 C-17.18248888 24.14756803 -14.58398069 15.67573825 -12.10424805 7.37084961 C-9.58883894 1.84560208 -5.90059184 0.03642304 0 0 Z M5.1875 20.53344727 C4.76621826 21.7288916 4.76621826 21.7288916 4.33642578 22.94848633 C3.26633734 25.92736944 2.16328195 28.8912752 1.03710938 31.84936523 C0.55856686 33.126661 0.09309123 34.4089379 -0.35839844 35.69604492 C-4.09462618 46.30396908 -4.09462618 46.30396908 -8.13452148 49.1953125 C-10.68359355 50.23585503 -13.12778747 50.93390299 -15.8125 51.53344727 C-17.2074231 51.96263001 -18.59959298 52.4009068 -19.98828125 52.84985352 C-20.66068848 53.05143066 -21.3330957 53.25300781 -22.02587891 53.46069336 C-31.16818972 56.22741733 -39.29382233 60.13695598 -47.5559082 64.92626953 C-52.58456849 67.74991672 -56.94915815 69.90793987 -62.8125 68.53344727 C-66.68972379 67.06855768 -70.36357015 65.27274747 -74.0625 63.40844727 C-75.9979939 62.43306021 -77.94048504 61.47139936 -79.890625 60.52563477 C-80.74043945 60.09621582 -81.59025391 59.66679687 -82.46582031 59.22436523 C-84.76890116 58.30979475 -84.76890116 58.30979475 -86.87426758 59.1796875 C-89.04894368 60.69859151 -90.86629864 62.32805148 -92.74609375 64.20141602 C-93.47763672 64.93038086 -94.20917969 65.6593457 -94.96289062 66.41040039 C-96.09500977 67.55412109 -96.09500977 67.55412109 -97.25 68.72094727 C-98.00087891 69.4640918 -98.75175781 70.20723633 -99.52539062 70.97290039 C-101.66604348 73.12108412 -103.74141536 75.31842624 -105.8125 77.53344727 C-106.71029175 78.38845825 -106.71029175 78.38845825 -107.6262207 79.26074219 C-109.43727756 81.05233148 -109.43727756 81.05233148 -110.8125 84.53344727 C-109.91375741 88.52021753 -108.06727441 91.8976449 -106.125 95.47094727 C-99.69109449 107.71612228 -99.69109449 107.71612228 -100.8125 114.53344727 C-102.18960235 117.82329474 -103.94584979 120.83672472 -105.75 123.90844727 C-116.31922546 142.793545 -116.31922546 142.793545 -120.8125 163.53344727 C-124.13704612 164.87224796 -127.47238544 166.17474337 -130.82421875 167.44360352 C-131.74654297 167.79358398 -132.66886719 168.14356445 -133.61914062 168.50415039 C-135.55125507 169.23638902 -137.48354895 169.96815434 -139.41601562 170.69946289 C-140.79370117 171.2225 -140.79370117 171.2225 -142.19921875 171.75610352 C-143.03670654 172.07329346 -143.87419434 172.3904834 -144.73706055 172.71728516 C-146.82687331 173.50360967 -146.82687331 173.50360967 -148.8125 174.53344727 C-148.8125 186.08344727 -148.8125 197.63344727 -148.8125 209.53344727 C-141.39510291 212.62402938 -134.18519926 215.53301124 -126.625 218.12719727 C-121.39276152 220.74331651 -119.74776847 224.35257519 -117.953125 229.70922852 C-117.31622289 231.75272718 -116.68634237 233.79842393 -116.0625 235.84594727 C-112.48322641 247.11160677 -107.99496762 257.30146036 -102.08203125 267.52563477 C-100.12541039 272.16132112 -100.08756705 275.46343553 -101.76171875 280.24389648 C-103.0438378 283.354653 -104.40809706 286.41352411 -105.8125 289.47094727 C-106.28945312 290.53635742 -106.76640625 291.60176758 -107.2578125 292.69946289 C-108.43124876 295.31622576 -109.61633464 297.92701568 -110.8125 300.53344727 C-105.99382753 306.34236472 -100.79993592 311.66410279 -95.4375 316.97094727 C-94.60605469 317.79788086 -93.77460938 318.62481445 -92.91796875 319.47680664 C-90.8850896 321.49800258 -88.84990037 323.51681062 -86.8125 325.53344727 C-80.14756138 323.44539024 -73.88728095 320.87696705 -67.58789062 317.87524414 C-63.50770841 316.01194769 -60.37019927 314.79908651 -55.8125 315.53344727 C-52.79035167 316.83854367 -49.97661045 318.45692516 -47.125 320.09594727 C-35.36961334 326.57331135 -22.86794282 331.72443815 -9.72265625 334.63500977 C-3.49333802 337.56495495 -1.78686656 345.23829591 0.375 351.22094727 C1.07619507 353.12091868 1.77798828 355.02066948 2.48046875 356.92016602 C2.7849292 357.75765381 3.08938965 358.5951416 3.40307617 359.45800781 C4.15388436 361.55130767 4.15388436 361.55130767 5.1875 363.53344727 C16.7375 363.53344727 28.2875 363.53344727 40.1875 363.53344727 C43.5511999 355.4827574 43.5511999 355.4827574 46.84765625 347.40454102 C47.31042969 346.27145508 47.77320313 345.13836914 48.25 343.97094727 C48.71535156 342.8146582 49.18070313 341.65836914 49.66015625 340.46704102 C51.97803854 336.01504715 53.91112663 334.93930532 58.6640625 333.42797852 C60.04586086 333.06343541 61.42874699 332.70299905 62.8125 332.34594727 C75.41384482 328.86381669 87.59346371 323.66798397 98.53515625 316.46704102 C104.38650067 314.40743672 109.82978705 316.19125932 115.30078125 318.67016602 C117.93668694 319.93945293 120.55123359 321.2466579 123.16601562 322.55883789 C124.01486328 322.96682617 124.86371094 323.37481445 125.73828125 323.79516602 C126.49794189 324.17632568 127.25760254 324.55748535 128.0402832 324.95019531 C130.15951345 325.72773608 130.15951345 325.72773608 132.14038086 324.95507812 C134.86056337 323.06603546 137.06187162 320.88146667 139.390625 318.52563477 C139.8732782 318.04015167 140.3559314 317.55466858 140.85321045 317.05447388 C142.38608562 315.51044861 143.91184004 313.95959903 145.4375 312.40844727 C146.47870361 311.35720718 147.52036541 310.30642069 148.5625 309.25610352 C151.10949464 306.68711723 153.65015177 304.11196565 156.1875 301.53344727 C154.09944298 294.86850865 151.53101978 288.60822822 148.52929688 282.30883789 C146.66532945 278.22718642 145.45000634 275.09197108 146.1875 270.53344727 C147.51233636 267.44847658 149.14871436 264.57140293 150.8125 261.65844727 C157.22884963 249.95884324 161.77163476 238.19856085 164.9375 225.20532227 C168.08138814 218.48526136 176.50653201 216.70198432 183 214.34594727 C184.90317488 213.64638132 186.80556513 212.94467574 188.70703125 212.24047852 C189.54339111 211.93601807 190.37975098 211.63155762 191.24145508 211.31787109 C193.15883628 210.69260269 193.15883628 210.69260269 194.1875 209.53344727 C194.27601529 206.93985405 194.30275945 204.37305035 194.28515625 201.77954102 C194.2837413 201.00409439 194.28232635 200.22864777 194.28086853 199.42970276 C194.27525345 196.94341232 194.26269846 194.45721066 194.25 191.97094727 C194.24498694 190.28930794 194.2404237 188.6076672 194.23632812 186.92602539 C194.22527913 182.7951316 194.20800445 178.66430451 194.1875 174.53344727 C193.61306152 174.30681396 193.03862305 174.08018066 192.44677734 173.84667969 C189.81757443 172.80755386 187.19003364 171.76428642 184.5625 170.72094727 C183.65886719 170.36452148 182.75523437 170.0080957 181.82421875 169.64086914 C168.26236372 164.24582462 168.26236372 164.24582462 165.1875 159.53344727 C164.23950195 157.13012695 164.23950195 157.13012695 163.42578125 154.45532227 C163.11535889 153.4664502 162.80493652 152.47757813 162.48510742 151.45874023 C162.16002197 150.41089355 161.83493652 149.36304688 161.5 148.28344727 C157.91820254 137.11079102 153.63015666 126.63782633 147.39453125 116.66625977 C145.39850001 111.48562206 146.19310957 107.12626901 148.15771484 102.00366211 C149.75176696 98.47326037 151.47571499 95.01660279 153.21289062 91.55493164 C153.62087891 90.70608398 154.02886719 89.85723633 154.44921875 88.98266602 C154.83037842 88.22300537 155.21153809 87.46334473 155.60424805 86.68066406 C156.38178881 84.56143381 156.38178881 84.56143381 155.60913086 82.58056641 C153.72008819 79.86038389 151.53551941 77.65907565 149.1796875 75.33032227 C148.69420441 74.84766907 148.20872131 74.36501587 147.70852661 73.86773682 C146.16450134 72.33486165 144.61365176 70.80910723 143.0625 69.28344727 C142.01125991 68.24224366 140.96047343 67.20058186 139.91015625 66.15844727 C137.34116996 63.61145262 134.76601839 61.0707955 132.1875 58.53344727 C130.14070339 59.30494816 128.09542824 60.08048606 126.05078125 60.85766602 C124.91165283 61.28909912 123.77252441 61.72053223 122.59887695 62.16503906 C118.58667405 63.77445703 114.75599957 65.63239423 110.91796875 67.61547852 C106.27127414 69.17767198 102.39635142 69.43191974 97.86889648 67.59033203 C95.30504676 66.26566343 92.80912696 64.85571326 90.3125 63.40844727 C81.48658912 58.52453165 72.81596026 55.0573294 63.18505859 52.15454102 C52.96245415 48.97606317 52.96245415 48.97606317 50.1875 45.53344727 C49.03662109 43.00561523 49.03662109 43.00561523 47.9609375 40.02563477 C47.373125 38.42268555 47.373125 38.42268555 46.7734375 36.78735352 C46.37382812 35.67231445 45.97421875 34.55727539 45.5625 33.40844727 C44.76007107 31.19668905 43.95550102 28.98570605 43.1484375 26.77563477 C42.61935791 25.30392822 42.61935791 25.30392822 42.07958984 23.80249023 C41.38859197 21.60142344 41.38859197 21.60142344 40.1875 20.53344727 C37.59390678 20.44493197 35.02710309 20.41818782 32.43359375 20.43579102 C31.65814713 20.43720596 30.8827005 20.43862091 30.08375549 20.44007874 C27.59746506 20.44569381 25.1112634 20.4582488 22.625 20.47094727 C20.94336067 20.47596033 19.26171994 20.48052357 17.58007812 20.48461914 C13.44918434 20.49566813 9.31835724 20.51294282 5.1875 20.53344727 Z " fill="#282D78" transform="translate(352.8125,183.466552734375)"/>
<path d="M0 0 C0.66950684 0.20898926 1.33901367 0.41797852 2.02880859 0.63330078 C31.32887205 9.97099109 55.72633885 30.48084289 70.0078125 57.73046875 C77.7214281 73.19844805 81.9829008 89.7577469 83 107 C83.08121094 108.31484375 83.08121094 108.31484375 83.1640625 109.65625 C84.02451973 137.50377486 73.79461491 166.4329392 55 187 C54.31679688 187.82371094 53.63359375 188.64742187 52.9296875 189.49609375 C32.67701601 213.44805395 2.6405754 225.34273382 -28 228 C-53.94939377 230.13129027 -84.0370573 220.66151845 -104.24609375 204.359375 C-105.15488281 203.58078125 -106.06367188 202.8021875 -107 202 C-107.98097656 201.18015625 -108.96195312 200.3603125 -109.97265625 199.515625 C-133.37598613 179.41029463 -146.77630711 151.43984438 -149.6875 120.8125 C-149.80821268 118.87596046 -149.91285392 116.93834014 -150 115 C-150.05285156 114.09507812 -150.10570312 113.19015625 -150.16015625 112.2578125 C-151.15847526 80.91927665 -137.2303459 51.99037055 -116.35668945 29.36474609 C-102.90394892 15.31887564 -85.44895938 5.75891704 -67 0 C-66.35498535 -0.21027832 -65.7099707 -0.42055664 -65.04541016 -0.63720703 C-45.07413112 -6.91020515 -19.84460102 -6.46944899 0 0 Z M-106.68261719 49.43261719 C-123.11159713 68.97932794 -130.45994565 93.68346098 -129 119 C-127.45679777 135.55773988 -122.06271828 151.08416927 -113 165 C-109.86889637 163.43444818 -109.32334325 160.69159508 -107.875 157.5625 C-105.09567947 151.72831642 -101.86679351 146.88753309 -97.6015625 141.98828125 C-95.80394151 139.99322857 -95.80394151 139.99322857 -95 137 C-94.34 137 -93.68 137 -93 137 C-91.91078643 135.87565051 -90.82193728 134.75094683 -89.734375 133.625 C-83.05608965 127.36786778 -75.30136746 122.74551937 -67 119 C-67.37511719 118.46632813 -67.75023437 117.93265625 -68.13671875 117.3828125 C-77.22322454 104.15359249 -81.56849909 92.11422208 -80 76 C-77.54178089 63.50282618 -70.44623377 52.30738133 -60 45 C-48.15785481 38.3778589 -35.9329418 36.0532319 -22.4921875 38.6875 C-9.80407857 42.28696353 -0.04835123 48.48511426 6.7578125 59.96484375 C13.22584943 72.3541029 15.58657225 85.7926795 11.375 99.375 C9.54002467 104.18525677 7.14933984 108.51916088 4.3671875 112.84375 C3.09705449 114.84693121 2.02080113 116.86117857 1 119 C1.87140625 119.46148437 2.7428125 119.92296875 3.640625 120.3984375 C23.46358395 131.14194338 35.15718328 145.12190925 45 165 C59.72866701 147.68735632 63.46380824 123.47284771 61.72265625 101.5 C58.59931113 75.32339327 45.69463981 51.94596454 24.90234375 35.55859375 C-16.70275313 5.68178664 -72.28047343 10.94410149 -106.68261719 49.43261719 Z M-52.6875 65.375 C-59.03959417 72.58548528 -60.43330008 77.90739184 -60.3359375 87.3515625 C-59.65471964 94.74990528 -56.49426015 99.92340492 -51.125 104.9375 C-44.46836979 110.17388443 -38.69846292 111.64366293 -30.28125 111.40234375 C-21.57602558 110.33491742 -16.16457682 105.76532712 -10.59375 99.28125 C-6.73449423 93.75721724 -5.48977212 87.71665994 -6.3984375 81.09765625 C-8.24101997 72.50255095 -11.42805249 66.25719137 -18.6875 61.125 C-30.4847813 54.48340079 -42.79977203 56.63700784 -52.6875 65.375 Z M-83.89453125 156.0625 C-89.83706411 164.35338072 -94.55023536 173.8516475 -96 184 C-74.44174582 201.6385716 -49.55315213 209.01601664 -21.79052734 206.82568359 C-3.13760823 204.8904486 15.04604514 196.4454192 29 184 C26.85249738 168.96748166 18.21205816 154.99243205 6.31738281 145.68310547 C-22.52660794 124.53783221 -60.38938918 128.66124148 -83.89453125 156.0625 Z " fill="#282D78" transform="translate(409,264)"/>
<path d="M0 0 C3.89690699 1.83231068 7.52251128 4.05780749 11.1875 6.3125 C13.30538766 7.58303515 15.42389054 8.85254526 17.54296875 10.12109375 C18.6107959 10.76546387 19.67862305 11.40983398 20.77880859 12.07373047 C25.80997598 15.08236399 30.90262171 17.98043782 36 20.875 C37.7500347 21.87233494 39.50003819 22.86972466 41.25 23.8671875 C42.49990475 24.57829244 43.74986436 25.28930104 45 26 C44.67773438 24.93007812 44.35546875 23.86015625 44.0234375 22.7578125 C42.82094082 18.34253845 42.56070245 15.53940805 43 11 C44.79363911 8.1899654 46.01880935 6.49059532 49 5 C50.98828125 4.7265625 50.98828125 4.7265625 53.3125 4.625 C54.07175781 4.57601562 54.83101563 4.52703125 55.61328125 4.4765625 C59.24689471 5.27345972 60.62312214 7.18744662 63 10 C63.96009551 12.63814731 64.65660762 14.96617915 65.23828125 17.6796875 C65.40877487 18.41067657 65.57926849 19.14166565 65.75492859 19.89480591 C66.1102505 21.43426394 66.45685633 22.97575711 66.79516602 24.51904297 C67.31038139 26.86535177 67.8528951 29.20400493 68.40039062 31.54296875 C68.74381141 33.04650501 69.08566063 34.55040126 69.42578125 36.0546875 C69.66473869 37.09252884 69.66473869 37.09252884 69.90852356 38.15133667 C71.06209666 43.46988017 71.93522102 48.5848688 69.93359375 53.75390625 C67.39473436 56.70308635 64.65453396 57.73679325 61.0625 58.9375 C60.37099854 59.18129395 59.67949707 59.42508789 58.96704102 59.67626953 C56.65282706 60.47776655 54.32915208 61.24304889 52 62 C51.14374023 62.28085449 50.28748047 62.56170898 49.40527344 62.85107422 C46.75475819 63.71076646 44.09840939 64.54807731 41.4375 65.375 C40.60549072 65.63788818 39.77348145 65.90077637 38.91625977 66.17163086 C34.16471605 67.59857988 30.01550321 68.46451469 25 68 C21.79386427 66.10006771 19.60097082 64.66525993 18.30078125 61.0625 C17.69129074 57.60216679 17.80877319 55.47806703 19.125 52.1875 C22.96529919 47.70715095 27.38821079 46.43045607 33 45 C26.13767667 40.22549846 19.00477008 36.09609521 11.6875 32.0625 C8.51346644 30.30520245 5.34151097 28.54485545 2.17724609 26.77001953 C0.00950852 25.56238949 -2.17056612 24.37670713 -4.36083984 23.21044922 C-5.43156738 22.62408691 -6.50229492 22.03772461 -7.60546875 21.43359375 C-8.5699292 20.91724365 -9.53438965 20.40089355 -10.52807617 19.86889648 C-13.56564388 17.57234529 -14.63617151 15.52797203 -16 12 C-16 7.4642798 -15.51406801 5.60633663 -12.5625 2.125 C-8.2867798 -1.42071919 -5.2682356 -1.41791838 0 0 Z " fill="#282D78" transform="translate(123,217)"/>
<path d="M0 0 C3.18783753 2.06556615 5.58991677 4.69098832 8.125 7.5 C8.78886719 8.19609375 9.45273438 8.8921875 10.13671875 9.609375 C14.0288958 13.72243881 17.76187718 17.97329545 21.45874023 22.26196289 C22.44807805 23.37761248 23.47331846 24.46295876 24.53930664 25.50561523 C27.25168676 28.28335391 28.41898469 30.57805966 28.75 34.375 C28.3606235 40.23511627 25.00977435 43.04404812 21 47 C19.5107173 48.58509669 18.03941428 50.18568066 16.56958008 51.78881836 C15.5239696 52.92875984 14.47432042 54.06501007 13.4206543 55.19750977 C10.54215184 58.29188857 7.76716474 61.43835133 5.0625 64.6875 C2.60114331 67.49878451 0.81274446 69.33276972 -3 70 C-7.6054095 70 -9.43901415 69.48937063 -12.9375 66.4375 C-15.02709786 63.50926755 -15.8415813 60.76398941 -15.63671875 57.09765625 C-14.35864713 52.88707673 -11.10496614 49.98583075 -8 47 C-7.67 46.67 -7.34 46.34 -7 46 C-7.66541306 45.99413376 -8.33082611 45.98826752 -9.0164032 45.98222351 C-15.94342577 45.91827904 -22.86998421 45.83385609 -29.79663086 45.73754883 C-32.38152954 45.70429889 -34.96650084 45.67626723 -37.55151367 45.65356445 C-41.26773009 45.62002073 -44.98328101 45.56770272 -48.69921875 45.51171875 C-49.85459641 45.50532883 -51.00997406 45.4989389 -52.20036316 45.49235535 C-53.28110611 45.47256119 -54.36184906 45.45276703 -55.4753418 45.43237305 C-56.42354294 45.42126999 -57.37174408 45.41016693 -58.34867859 45.39872742 C-61.52968598 44.92034149 -63.40769606 43.88128374 -66 42 C-68.14268559 38.78597162 -69 36.81045073 -69 32.9375 C-67.7379396 29.23019756 -65.98716784 27.48930653 -63 25 C-60.03107289 24.01035763 -57.98850092 23.84726273 -54.88598633 23.79467773 C-53.32470757 23.7647599 -53.32470757 23.7647599 -51.73188782 23.73423767 C-50.60993515 23.71752518 -49.48798248 23.70081268 -48.33203125 23.68359375 C-47.18208176 23.66281265 -46.03213226 23.64203156 -44.84733582 23.62062073 C-41.16911875 23.55516658 -37.49082952 23.49625926 -33.8125 23.4375 C-31.32095604 23.39431087 -28.82941941 23.35069645 -26.33789062 23.30664062 C-20.22533699 23.19948939 -14.11271136 23.09771517 -8 23 C-8.74600464 22.09942871 -8.74600464 22.09942871 -9.50708008 21.18066406 C-10.15056396 20.38370117 -10.79404785 19.58673828 -11.45703125 18.765625 C-12.09874268 17.97961914 -12.7404541 17.19361328 -13.40161133 16.38378906 C-15.95684754 12.5729862 -15.82204889 10.48390306 -15 6 C-11.16545764 -0.0074497 -6.90608526 -1.41380074 0 0 Z " fill="#282D78" transform="translate(136,341)"/>
<path d="M0 0 C5.29965469 5.26366383 8.60621448 11.98099199 12.25 18.4375 C13.24795146 20.18971284 14.24821014 21.9405934 15.24874878 23.69132996 C16.22899875 25.40660931 17.20777129 27.12273272 18.18652344 28.83886719 C20.53921332 32.93992112 22.93898165 37.01049387 25.375 41.0625 C25.73754883 41.66827881 26.10009766 42.27405762 26.47363281 42.89819336 C28.03261331 45.60161458 28.03261331 45.60161458 30 48 C30.24234375 47.24074219 30.4846875 46.48148438 30.734375 45.69921875 C31.06953125 44.70535156 31.4046875 43.71148437 31.75 42.6875 C32.07484375 41.70136719 32.3996875 40.71523437 32.734375 39.69921875 C34.12783957 36.72735451 35.18635261 35.62672269 38 34 C41.85879672 33.01776083 44.0588913 32.59361215 47.75 34.1875 C50.08638069 36.06958445 51.59754886 37.34272415 53 40 C53.33638424 45.25458178 52.48685026 49.74266707 50.953125 54.7265625 C50.74065125 55.43726898 50.52817749 56.14797546 50.30926514 56.88021851 C49.86009196 58.3724534 49.40601462 59.86322013 48.94726562 61.35253906 C48.25115952 63.621221 47.57786701 65.89583957 46.90625 68.171875 C46.4649003 69.62801665 46.02223596 71.08376063 45.578125 72.5390625 C45.38003235 73.21313141 45.1819397 73.88720032 44.97784424 74.58169556 C43.66091905 78.78278642 42.01109069 81.78602378 39 85 C31.61599747 88.69200127 21.10163795 84.7482446 13.49658203 82.91162109 C11.2460585 82.37405853 8.98934046 81.87224876 6.73046875 81.37109375 C5.28334171 81.02819722 3.83670663 80.68321635 2.390625 80.3359375 C1.3889328 80.11990372 1.3889328 80.11990372 0.36700439 79.89950562 C-4.9626233 78.55107121 -6.97171537 76.35718518 -10 72 C-10.89117557 68.93900566 -10.47019022 67.29133151 -10 64 C-8.20636089 61.1899654 -6.98119065 59.49059532 -4 58 C1.54617297 57.7179912 5.63797857 58.35962343 11 60 C8.92232465 56.24683981 6.83739298 52.49776376 4.75 48.75 C4.12262939 47.62150635 3.49525879 46.4930127 2.84887695 45.33032227 C-0.19715841 39.88305515 -3.28096774 34.47606579 -6.56640625 29.16796875 C-7.38866699 27.83717285 -7.38866699 27.83717285 -8.22753906 26.47949219 C-9.25740046 24.82777979 -10.2991183 23.18338032 -11.35449219 21.54785156 C-14.44224543 16.59338208 -15.88676678 12.88183673 -16 7 C-14.4165167 3.8330334 -12.97595724 1.80167916 -10.25 -0.4375 C-6.72242878 -1.3193928 -3.34306946 -1.39450197 0 0 Z " fill="#282D78" transform="translate(232,108)"/>
<path d="M0 0 C1.96233487 0.62128355 3.92913748 1.22647171 5.89697266 1.83007812 C19.61649287 6.1253759 19.61649287 6.1253759 22.51806641 9.99414062 C24.26040324 15.6963339 22.9365757 21.52057921 21.63134766 27.18945312 C21.46563766 27.92235565 21.29992767 28.65525818 21.12919617 29.41036987 C20.77771852 30.94918005 20.42200673 32.48702871 20.06225586 34.02392578 C19.51888283 36.3656222 19.00351278 38.71241434 18.48876953 41.06054688 C18.14216351 42.56224264 17.7939114 44.06355963 17.44384766 45.56445312 C17.29466385 46.26039581 17.14548004 46.9563385 16.99177551 47.67337036 C15.8211482 52.49200335 14.02458775 55.11207626 10.20556641 58.24414062 C6.75482572 59.20926966 3.69033929 59.03821182 0.20556641 58.24414062 C-2.62184854 56.51627594 -3.13801497 55.33612206 -4.79443359 52.24414062 C-5.419613 46.61752593 -4.37644864 42.68768003 -2.79443359 37.24414062 C-5.79262556 38.95439734 -8.79049592 40.66521419 -11.7878418 42.37695312 C-14.34363398 43.83634451 -16.90094012 45.29303628 -19.45922852 46.74804688 C-25.22028058 50.02873501 -30.96636178 53.32212403 -36.63818359 56.75585938 C-37.48920654 57.26656982 -38.34022949 57.77728027 -39.21704102 58.3034668 C-40.76658611 59.23756278 -42.30897592 60.18367417 -43.8425293 61.14379883 C-48.31169115 63.82258956 -51.43467947 64.92474432 -56.79443359 64.24414062 C-59.99330336 62.34851409 -62.15603411 60.89786695 -63.52880859 57.34179688 C-64.23666069 53.65388746 -64.09767905 51.89446348 -62.47021484 48.40429688 C-59.11881894 43.72453218 -53.78176163 41.34940971 -48.85693359 38.61914062 C-47.80183594 38.01956543 -46.74673828 37.41999023 -45.65966797 36.80224609 C-43.46972433 35.55903093 -41.27647869 34.3216155 -39.08007812 33.08984375 C-34.90694183 30.7455942 -30.75599551 28.36365898 -26.60473633 25.98095703 C-22.67323403 23.72608967 -18.73447526 21.48404436 -14.79443359 19.24414062 C-15.55369141 18.91800781 -16.31294922 18.591875 -17.09521484 18.25585938 C-18.08908203 17.81886719 -19.08294922 17.381875 -20.10693359 16.93164062 C-21.58613281 16.28775391 -21.58613281 16.28775391 -23.09521484 15.63085938 C-25.58723231 14.35058991 -27.11139118 13.45347643 -28.79443359 11.24414062 C-29.76692856 6.93737719 -30.3081888 4.52852863 -28.66943359 0.43164062 C-20.94988054 -8.5745046 -9.73943885 -3.09032812 0 0 Z " fill="#282D78" transform="translate(170.79443359375,470.755859375)"/>
<path d="M0 0 C2.77262674 1.70623184 3.71852362 2.95423707 4.5625 6.08984375 C5.38016803 11.20878631 5.09229014 13.68409485 2 18 C-0.64111328 19.87768555 -0.64111328 19.87768555 -3.8203125 21.63671875 C-4.39229874 21.95811829 -4.96428497 22.27951782 -5.55360413 22.61065674 C-7.40460362 23.64773303 -9.26458345 24.66743162 -11.125 25.6875 C-12.39702408 26.39711562 -13.66826271 27.10814099 -14.9387207 27.82055664 C-17.45656195 29.23177799 -19.97703575 30.63809752 -22.49951172 32.04101562 C-27.10084142 34.60738491 -31.65106847 37.25834997 -36.1875 39.9375 C-36.88053223 40.34379639 -37.57356445 40.75009277 -38.28759766 41.16870117 C-41.31745714 42.84839726 -41.31745714 42.84839726 -44 45 C-43.24074219 45.25394531 -42.48148438 45.50789063 -41.69921875 45.76953125 C-40.70535156 46.11371094 -39.71148438 46.45789063 -38.6875 46.8125 C-37.70136719 47.14894531 -36.71523438 47.48539062 -35.69921875 47.83203125 C-33.06068169 48.97374265 -31.69305709 49.70971565 -30 52 C-28.99167318 55.00779307 -28.71490406 57.84242802 -29 61 C-30.64068263 64.13221229 -32.79872842 66.39936421 -36 68 C-41.20903242 68.31795811 -45.58991891 67.50626063 -50.5078125 65.91796875 C-51.19632294 65.70312332 -51.88483337 65.48827789 -52.59420776 65.266922 C-54.03941204 64.8135087 -55.48310057 64.355238 -56.92529297 63.89233398 C-59.12221096 63.18839367 -61.32412609 62.50229429 -63.52734375 61.81835938 C-64.93783028 61.37344154 -66.34799818 60.92751205 -67.7578125 60.48046875 C-68.41000763 60.27721481 -69.06220276 60.07396088 -69.73416138 59.86454773 C-78.60285937 56.99326428 -78.60285937 56.99326428 -81.32348633 53.11181641 C-83.88786914 45.10679608 -80.08056729 34.58684535 -78.26342773 26.62744141 C-77.80939436 24.61120876 -77.38828734 22.58965811 -76.96679688 20.56640625 C-74.59879733 9.79692071 -74.59879733 9.79692071 -71.015625 6.62109375 C-66.63554117 4.26651501 -64.91224723 4.2982504 -60 5 C-57.1899654 6.79363911 -55.49059532 8.01880935 -54 11 C-53.83203125 12.953125 -53.83203125 12.953125 -53.8125 15.25 C-53.79832031 15.99765625 -53.78414062 16.7453125 -53.76953125 17.515625 C-54.050883 20.54850145 -54.95736681 23.14821278 -56 26 C-44.60920115 19.75807234 -33.34096631 13.33066398 -22.15039062 6.73583984 C-7.57089355 -1.8316678 -7.57089355 -1.8316678 0 0 Z " fill="#282D78" transform="translate(639,217)"/>
<path d="M0 0 C4.46873577 2.32746655 7.6951073 5.57746859 11.16015625 9.15625 C12.97542957 10.9753774 14.85789012 12.64498574 16.8125 14.3125 C20.08614895 17.16250027 23.2929269 20.07022816 26.4375 23.0625 C27.28183594 23.85785156 28.12617188 24.65320313 28.99609375 25.47265625 C31.32625698 28.41147811 31.77168818 30.29120134 32 34 C31.22047316 37.27401274 30.15616648 38.83005412 27.875 41.3125 C24.89414573 43.06213185 22.66423009 43.74193211 19.18847656 43.6081543 C16.29899149 42.80519721 14.54927948 41.34696711 12.234375 39.45703125 C11.43741211 38.81354736 10.64044922 38.17006348 9.81933594 37.50708008 C9.21895508 37.00974365 8.61857422 36.51240723 8 36 C7.99413376 36.65288498 7.98826752 37.30576996 7.98222351 37.97843933 C7.91827366 44.77570638 7.83384938 51.57250067 7.73754883 58.36938477 C7.70430112 60.90577968 7.67626875 63.44224856 7.65356445 65.97875977 C7.6200166 69.62548328 7.56769848 73.27152911 7.51171875 76.91796875 C7.50532883 78.05147263 7.4989389 79.1849765 7.49235535 80.35282898 C7.47256119 81.41355118 7.45276703 82.47427338 7.43237305 83.56713867 C7.42126999 84.49757492 7.41016693 85.42801117 7.39872742 86.38664246 C6.76654375 90.53012967 4.96088747 93.17638217 1.8125 95.875 C-2.02668048 97.41067219 -5.09144052 97.36554275 -9 96 C-12.91622393 92.08377607 -14.11548846 89.3234101 -14.20532227 83.90771484 C-14.22526749 82.84676605 -14.24521271 81.78581726 -14.26576233 80.69271851 C-14.28247482 79.54373077 -14.29918732 78.39474304 -14.31640625 77.2109375 C-14.33718735 76.03737701 -14.35796844 74.86381653 -14.37937927 73.6546936 C-14.44491983 69.89485696 -14.50378076 66.13494878 -14.5625 62.375 C-14.60568092 59.83072168 -14.64929507 57.28645067 -14.69335938 54.7421875 C-14.80060582 48.49486793 -14.9023638 42.24747674 -15 36 C-15.90057129 36.74600464 -15.90057129 36.74600464 -16.81933594 37.50708008 C-17.61629883 38.15056396 -18.41326172 38.79404785 -19.234375 39.45703125 C-20.02038086 40.09874268 -20.80638672 40.7404541 -21.61621094 41.40161133 C-25.4270138 43.95684754 -27.51609694 43.82204889 -32 43 C-34.8100346 41.20636089 -36.50940468 39.98119065 -38 37 C-38.9076677 30.41940914 -38.9076677 30.41940914 -36.68359375 26.94140625 C-34.87070951 24.86084783 -32.97808073 22.92378047 -31 21 C-30.13761719 20.1028125 -30.13761719 20.1028125 -29.2578125 19.1875 C-25.06683507 14.86132975 -20.57093552 10.91666436 -16 7 C-15.34257812 6.42636719 -14.68515625 5.85273437 -14.0078125 5.26171875 C-13.38648438 4.72160156 -12.76515625 4.18148437 -12.125 3.625 C-11.57070313 3.14289062 -11.01640625 2.66078125 -10.4453125 2.1640625 C-7.07943184 -0.54683598 -4.22786668 -0.35232222 0 0 Z " fill="#282D78" transform="translate(379,587)"/>
<path d="M0 0 C3.340641 2.14143654 3.90802076 3.71384235 5.125 7.5 C5.57226743 13.75027562 2.02381816 18.77057329 -1 24 C-1.36061523 24.62551758 -1.72123047 25.25103516 -2.09277344 25.89550781 C-4.12176261 29.40357321 -6.1787942 32.89404136 -8.25390625 36.375 C-11.25464151 41.41229985 -14.19214195 46.48546364 -17.125 51.5625 C-17.8533606 52.82235718 -17.8533606 52.82235718 -18.59643555 54.10766602 C-19.7314926 56.07146879 -20.86603493 58.03556654 -22 60 C-20.93007813 59.67773438 -19.86015625 59.35546875 -18.7578125 59.0234375 C-14.34253845 57.82094082 -11.53940805 57.56070245 -7 58 C-4.1899654 59.79363911 -2.49059532 61.01880935 -1 64 C-0.7265625 65.98828125 -0.7265625 65.98828125 -0.625 68.3125 C-0.57601562 69.07175781 -0.52703125 69.83101563 -0.4765625 70.61328125 C-1.27125172 74.23682687 -3.20396934 75.62251169 -6 78 C-8.54198627 78.9581858 -10.77171044 79.65322182 -13.390625 80.23828125 C-14.09467468 80.40877487 -14.79872437 80.57926849 -15.52410889 80.75492859 C-17.00802862 81.11022739 -18.49405342 81.45683542 -19.98193359 81.79516602 C-22.23446613 82.30895681 -24.47827252 82.8522175 -26.72265625 83.40039062 C-41.50280232 86.93683659 -41.50280232 86.93683659 -48 86 C-53.42306874 82.4119724 -54.74953463 77.00426242 -56.5625 71.0625 C-56.85842041 70.13042725 -57.15434082 69.19835449 -57.45922852 68.23803711 C-58.32299398 65.49691109 -59.16382029 62.74964618 -60 60 C-60.23170898 59.2575 -60.46341797 58.515 -60.70214844 57.75 C-64.45772289 45.7136443 -64.45772289 45.7136443 -64 40 C-61.51204715 36.00419694 -60.06508964 34.30431133 -55.5 33 C-51.88526782 33 -50.05529311 33.10076374 -47 35 C-43.79924382 39.04801517 -41.97655096 43.29312865 -40 48 C-39.67427002 47.41847168 -39.34854004 46.83694336 -39.01293945 46.23779297 C-35.64982311 40.24132074 -32.26556416 34.25718719 -28.86523438 28.28173828 C-27.6414497 26.12858205 -26.42127162 23.97337111 -25.20507812 21.81591797 C-23.50491452 18.80651466 -21.78620395 15.80846764 -20.0625 12.8125 C-19.54405518 11.88743652 -19.02561035 10.96237305 -18.49145508 10.00927734 C-13.99564926 2.26935124 -9.46911434 -3.08907142 0 0 Z " fill="#282D78" transform="translate(530,108)"/>
<path d="M0 0 C4.25605511 3.9454144 5.45259798 9.52024119 7.07421875 14.91796875 C7.40357422 15.95630859 7.73292969 16.99464844 8.07226562 18.06445312 C9.03370711 21.11315923 9.96298364 24.17015741 10.88671875 27.23046875 C11.18094727 28.17575439 11.47517578 29.12104004 11.77832031 30.0949707 C12.04999023 30.97499756 12.32166016 31.85502441 12.6015625 32.76171875 C12.84124756 33.53451172 13.08093262 34.30730469 13.32788086 35.10351562 C14.47806606 39.48115368 14.4544602 42.88581795 12.69921875 47.04296875 C10.48049299 49.72074122 9.28578266 50.47512122 5.88671875 51.23046875 C1.98426451 51.29265926 -1.08592299 50.86909686 -4.42578125 48.79296875 C-6.97411128 44.92328241 -7.98898791 40.69357263 -9.11328125 36.23046875 C-13.15119478 42.60340577 -17.02804138 49.0521573 -20.7734375 55.6015625 C-21.42497803 56.74061035 -22.07651855 57.8796582 -22.74780273 59.05322266 C-24.05700384 61.34503466 -25.35838543 63.6407986 -26.65649414 65.93896484 C-35.54213091 81.51636853 -35.54213091 81.51636853 -41.11328125 85.23046875 C-45.2246439 85.68728682 -47.37830618 85.68778657 -50.92578125 83.48046875 C-54.35772569 79.95046875 -54.35772569 79.95046875 -55.11328125 77.23046875 C-54.7758713 71.11815772 -53.29045538 67.0288316 -49.98828125 61.85546875 C-49.0906148 60.39044455 -48.19492164 58.92421015 -47.30078125 57.45703125 C-46.80191406 56.64524414 -46.30304688 55.83345703 -45.7890625 54.99707031 C-42.79024788 50.04623009 -39.90621575 45.02846194 -37.0166626 40.0133667 C-35.9943893 38.24105824 -34.96796354 36.47120643 -33.94091797 34.70166016 C-33.31459473 33.61804199 -32.68827148 32.53442383 -32.04296875 31.41796875 C-31.47819824 30.44214844 -30.91342773 29.46632813 -30.33154297 28.4609375 C-29.03338957 26.50777917 -29.03338957 26.50777917 -29.11328125 25.23046875 C-29.75265625 25.39546875 -30.39203125 25.56046875 -31.05078125 25.73046875 C-36.54558517 26.62757959 -41.25506735 27.39185244 -46.11328125 24.35546875 C-49.19049192 21.08593241 -49.47677836 18.76383598 -49.37890625 14.26171875 C-48.93074713 10.8346196 -47.71876113 9.45465889 -45.11328125 7.23046875 C-37.94734778 4.10556604 -30.0204014 2.71551968 -22.42578125 1.04296875 C-21.22888672 0.77033203 -20.03199219 0.49769531 -18.79882812 0.21679688 C-17.64060547 -0.04037109 -16.48238281 -0.29753906 -15.2890625 -0.5625 C-13.7253894 -0.91090942 -13.7253894 -0.91090942 -12.13012695 -1.26635742 C-7.37718209 -2.05909185 -4.25318367 -2.41743062 0 0 Z " fill="#282D78" transform="translate(271.11328125,558.76953125)"/>
<path d="M0 0 C2.8100346 1.79363911 4.50940468 3.01880935 6 6 C6.6083321 10.33436618 6.86334455 12.68750818 4.41992188 16.40209961 C3.77603516 17.18593018 3.13214844 17.96976074 2.46875 18.77734375 C1.82357422 19.57261475 1.17839844 20.36788574 0.51367188 21.18725586 C0.01416016 21.78546143 -0.48535156 22.38366699 -1 23 C-0.04279556 23.00879936 -0.04279556 23.00879936 0.93374634 23.01777649 C7.58518984 23.08179028 14.23615309 23.16623101 20.88720703 23.26245117 C23.36826235 23.29567236 25.84939273 23.32371298 28.33056641 23.34643555 C31.90039001 23.3800322 35.46952745 23.43235283 39.0390625 23.48828125 C40.14553131 23.49467117 41.25200012 23.5010611 42.39199829 23.50764465 C47.97029943 23.61375174 52.22617834 23.77244088 57 27 C59.04231601 29.30584066 59.94559305 30.86198798 60.09375 33.9609375 C59.82678226 37.55165361 59.35195009 39.54246488 57.125 42.4375 C53.66691429 44.98021008 50.8647279 45.1232278 46.70239258 45.11352539 C45.08105156 45.11341209 45.08105156 45.11341209 43.42695618 45.11329651 C42.26125595 45.10813522 41.09555573 45.10297394 39.89453125 45.09765625 C38.70018967 45.0962413 37.50584808 45.09482635 36.27531433 45.09336853 C32.45435092 45.0877635 28.63344575 45.07521011 24.8125 45.0625 C22.22461022 45.05748565 19.63671952 45.05292263 17.04882812 45.04882812 C10.69919882 45.03779243 4.34960357 45.02104936 -2 45 C-1.43192627 45.67256836 -0.86385254 46.34513672 -0.27856445 47.03808594 C0.456604 47.92786133 1.19177246 48.81763672 1.94921875 49.734375 C2.68229248 50.61319336 3.41536621 51.49201172 4.1706543 52.39746094 C5.94539081 54.92230963 6.65967684 56.21687967 6.8125 59.25 C5.75717009 64.12075341 4.7573832 65.72228274 1 69 C-2.69648359 70.1221468 -4.79584628 70.57977772 -8.3203125 68.8828125 C-11.70546007 66.50432689 -14.49010609 63.76537809 -17.375 60.8125 C-17.94863281 60.23169678 -18.52226563 59.65089355 -19.11328125 59.05249023 C-23.24487134 54.84185186 -27.22162457 50.53198583 -31 46 C-31.73863281 45.13568359 -31.73863281 45.13568359 -32.4921875 44.25390625 C-36.89765209 39.06441831 -36.89765209 39.06441831 -37.3125 34.75 C-36.66282666 26.95391993 -30.85923127 22.73414313 -25.51953125 17.51953125 C-23.35407126 15.35407126 -21.34937213 13.14997505 -19.375 10.8125 C-8.62004842 -1.55443496 -8.62004842 -1.55443496 0 0 Z " fill="#282D78" transform="translate(624,341)"/>
<path d="M0 0 C3.30055507 2.20037005 4.73542724 3.20628173 6 7 C6.11572967 8.76340143 6.17649075 10.53064769 6.20532227 12.29760742 C6.2352401 13.91894844 6.2352401 13.91894844 6.26576233 15.57304382 C6.28247482 16.73874405 6.29918732 17.90444427 6.31640625 19.10546875 C6.33718735 20.29981033 6.35796844 21.49415192 6.37937927 22.72468567 C6.44484276 26.54556443 6.5037451 30.36651276 6.5625 34.1875 C6.60568824 36.77539786 6.64930263 39.36328865 6.69335938 41.95117188 C6.80052092 48.30070739 6.9022934 54.65031234 7 61 C7.47050781 60.50628906 7.94101562 60.01257813 8.42578125 59.50390625 C9.04839844 58.86324219 9.67101562 58.22257812 10.3125 57.5625 C10.92738281 56.92441406 11.54226563 56.28632812 12.17578125 55.62890625 C14.80631386 53.28001524 16.89220888 53.00998066 20.375 52.6875 C24.70298722 53.06060235 26.11536352 53.78569078 29 57 C30.86767548 61.12445001 31.30641437 63.07864369 29.8671875 67.40625 C28.1359992 71.15732361 25.75865503 73.47810657 22.625 76.1875 C21.55536742 77.12689622 20.48638121 78.06702882 19.41796875 79.0078125 C18.86157715 79.4915332 18.30518555 79.97525391 17.73193359 80.47363281 C14.17514731 83.60825754 10.73883218 86.876434 7.27783203 90.1159668 C2.73459286 94.332053 -0.22273189 96.79261442 -6.48828125 96.62109375 C-11.81807217 95.30315167 -15.2535935 90.78371069 -19 87 C-20.64730949 85.46197396 -22.31220314 83.94491076 -23.98071289 82.42993164 C-25.66479905 80.89568121 -27.33001404 79.34308537 -28.9921875 77.78515625 C-30.75737808 76.13422285 -32.53124603 74.5532308 -34.3828125 72.99609375 C-36.98637828 70.72456167 -38.71275316 69.16314743 -39.5546875 65.75390625 C-39.78266657 61.67039877 -39.31710374 59.50736598 -37.125 56 C-34.04167625 53.09804824 -31.63575331 52.44359519 -27.36132812 52.43139648 C-24.10825716 53.21473005 -22.26675211 54.89424388 -19.71875 57.03515625 C-18.83123047 57.77258057 -17.94371094 58.51000488 -17.02929688 59.26977539 C-16.35962891 59.84074951 -15.68996094 60.41172363 -15 61 C-15.00888245 60.33680756 -15.01776489 59.67361511 -15.0269165 58.99032593 C-15.11549956 52.07973866 -15.17578015 45.16931304 -15.21972656 38.25830078 C-15.23982563 35.68010912 -15.26710941 33.10196296 -15.30175781 30.52392578 C-15.35034847 26.81531539 -15.37298658 23.10730844 -15.390625 19.3984375 C-15.41127014 18.24822113 -15.43191528 17.09800476 -15.45318604 15.91293335 C-15.45493662 9.65124917 -15.31726306 5.7053205 -11 1 C-7.12146558 -1.34753399 -4.30724867 -1.25628086 0 0 Z " fill="#282D78" transform="translate(380,68)"/>
<path d="M0 0 C0.71070648 0.16808167 1.42141296 0.33616333 2.15365601 0.50933838 C3.645414 0.86507805 5.13618432 1.22498301 6.62597656 1.58886719 C8.89568276 2.13995614 11.16993753 2.66818724 13.4453125 3.1953125 C14.90137363 3.54549757 16.35711505 3.89701523 17.8125 4.25 C18.82360336 4.48151764 18.82360336 4.48151764 19.85513306 4.7177124 C24.17849334 5.80150535 27.04328249 7.32224109 30.2734375 10.390625 C32.02765687 13.89906375 31.94511718 17.57126995 31.2734375 21.390625 C28.65031084 24.68634823 27.20397936 26.0671474 23.08203125 26.7578125 C18.37463435 26.90118499 14.72838495 25.91562883 10.2734375 24.390625 C12.36143442 28.05726588 14.45123513 31.72287201 16.54220581 35.38781738 C17.64603011 37.32390249 18.74797615 39.26104852 19.84985352 41.19824219 C23.01541213 46.75484003 26.1851583 52.30086684 29.52734375 57.75390625 C29.98898926 58.51131104 30.45063477 59.26871582 30.92626953 60.04907227 C31.75249448 61.39423935 32.58987608 62.73265071 33.44091797 64.06225586 C36.23146265 68.62006366 37.03112726 72.14240557 37.2734375 77.390625 C35.72467728 81.05874131 33.81128593 83.52342722 30.2734375 85.390625 C26.04842265 86.01655313 24.02376102 85.88431314 20.4296875 83.51953125 C16.15733411 79.75810396 13.80100407 74.78424699 11.1484375 69.828125 C10.01928437 67.77214111 8.88771975 65.71748002 7.75390625 63.6640625 C6.89611572 62.10510254 6.89611572 62.10510254 6.02099609 60.51464844 C3.27091151 55.59845923 0.37588968 50.77285827 -2.5390625 45.953125 C-3.06064941 45.08937256 -3.58223633 44.22562012 -4.11962891 43.33569336 C-5.31939288 41.35243914 -6.52146411 39.37064076 -7.7265625 37.390625 C-9.85238573 40.33949091 -9.85238573 40.33949091 -11.0390625 43.828125 C-12.88956564 47.73474274 -13.89951101 49.39390248 -17.7265625 51.390625 C-21.65310933 51.80469721 -25.08236571 51.43963743 -28.453125 49.2890625 C-29.8515625 47.890625 -29.8515625 47.890625 -31.7265625 44.390625 C-31.4879574 36.71549425 -29.27987628 29.53502406 -27.08056641 22.22387695 C-26.47599481 20.20122572 -25.89583938 18.17255329 -25.31640625 16.14257812 C-21.75558773 4.0061901 -21.75558773 4.0061901 -16.7265625 -0.609375 C-11.59225305 -3.17652973 -5.32831982 -1.29181582 0 0 Z " fill="#282D78" transform="translate(497.7265625,558.609375)"/>
<path d="M0 0 C5.08077036 4.73840039 5.08077036 4.73840039 5.2265625 7.96484375 C4.93529414 12.40855336 4.62306649 14.43090406 1.57421875 17.8515625 C-0.84409773 19.55830845 -3.30120369 20.60635905 -6.078125 21.609375 C-6.78960693 21.8686377 -7.50108887 22.12790039 -8.23413086 22.39501953 C-9.0405603 22.6828833 -9.0405603 22.6828833 -9.86328125 22.9765625 C-8.88439941 23.51845215 -8.88439941 23.51845215 -7.88574219 24.07128906 C3.65695084 30.47131816 15.17704795 36.90057581 26.51171875 43.6640625 C27.34219727 44.15616211 28.17267578 44.64826172 29.02832031 45.15527344 C29.79370117 45.61579102 30.55908203 46.07630859 31.34765625 46.55078125 C32.01071777 46.94869873 32.6737793 47.34661621 33.35693359 47.7565918 C36.98757437 50.24524913 38.00756946 51.40461563 39.01171875 55.8515625 C39.3645717 59.7761514 38.7043156 61.87773871 36.13671875 64.9765625 C33.66060779 67.54110599 32.47721815 67.94845981 28.87988281 68.24536133 C24.7023444 67.94536982 22.57853396 66.98108211 18.99609375 64.86328125 C18.43519043 64.53749588 17.87428711 64.21171051 17.29638672 63.87605286 C15.4845411 62.81935637 13.68591823 61.74212341 11.88671875 60.6640625 C10.64049429 59.9321516 9.39341676 59.20169139 8.14550781 58.47265625 C5.64974622 57.01195669 3.15881323 55.54354118 0.671875 54.06787109 C-4.23158356 51.16096775 -9.17391789 48.32185566 -14.11328125 45.4765625 C-16.6978389 43.97865823 -19.28065409 42.47779405 -21.86328125 40.9765625 C-21.54230469 41.87375 -21.22132813 42.7709375 -20.890625 43.6953125 C-19.39067306 48.48603352 -18.6656856 53.13372623 -20.66796875 57.88671875 C-22.35997942 60.35472052 -24.09835685 61.79812625 -27.0234375 62.48046875 C-30.81665977 62.67677908 -33.32452628 62.24593999 -36.73828125 60.5390625 C-42.27822609 53.85854078 -43.23329052 43.54181668 -45.05078125 35.2890625 C-45.32341797 34.09216797 -45.59605469 32.89527344 -45.87695312 31.66210938 C-46.13412109 30.50388672 -46.39128906 29.34566406 -46.65625 28.15234375 C-46.88852295 27.10989502 -47.1207959 26.06744629 -47.36010742 24.9934082 C-48.04542903 20.8844712 -48.31401817 17.32877327 -46.98828125 13.3515625 C-41.14959902 6.82597648 -29.23130099 5.12729123 -21.11328125 2.7265625 C-19.92089844 2.36304688 -18.72851562 1.99953125 -17.5 1.625 C-16.34628906 1.28210938 -15.19257812 0.93921875 -14.00390625 0.5859375 C-12.96782227 0.27624023 -11.93173828 -0.03345703 -10.86425781 -0.35253906 C-7.12295962 -1.18894383 -3.46513801 -1.90328335 0 0 Z " fill="#282D78" transform="translate(604.86328125,467.0234375)"/>
</svg>
