<?xml version="1.0" encoding="UTF-8" standalone="no"?>
<!DOCTYPE svg PUBLIC "-//W3C//DTD SVG 1.1//EN" "http://www.w3.org/Graphics/SVG/1.1/DTD/svg11.dtd">
<svg width="100%" height="100%" viewBox="0 0 32 32" version="1.1" xmlns="http://www.w3.org/2000/svg" xmlns:xlink="http://www.w3.org/1999/xlink" xml:space="preserve" xmlns:serif="http://www.serif.com/" style="fill-rule:evenodd;clip-rule:evenodd;stroke-linejoin:round;stroke-miterlimit:2;">
    <g transform="matrix(1,0,0,1,-94,-94)">
        <g id="Design-Here" serif:id="Design Here">
            <path d="M117.727,100.859L116.592,101.994C114.518,100.24 111.836,99.182 108.909,99.182C102.336,99.182 97,104.518 97,111.091C97,117.664 102.336,123 108.909,123C115.482,123 120.818,117.664 120.818,111.091C120.818,108.164 119.76,105.482 118.006,103.408L119.141,102.273L122,102.273C122.552,102.273 123,101.825 123,101.273C123,100.721 122.552,100.273 122,100.273L121.141,100.273L122.707,98.707C123.097,98.317 123.097,97.683 122.707,97.293C122.317,96.903 121.683,96.903 121.293,97.293L119.727,98.859L119.727,98C119.727,97.448 119.279,97 118.727,97C118.175,97 117.727,97.448 117.727,98L117.727,100.859ZM115.172,103.414C113.464,102.019 111.284,101.182 108.909,101.182C103.44,101.182 99,105.622 99,111.091C99,116.56 103.44,121 108.909,121C114.378,121 118.818,116.56 118.818,111.091C118.818,108.716 117.981,106.536 116.586,104.828L115.681,105.733C116.848,107.206 117.545,109.068 117.545,111.091C117.545,115.857 113.676,119.727 108.909,119.727C104.143,119.727 100.273,115.857 100.273,111.091C100.273,106.324 104.143,102.455 108.909,102.455C110.932,102.455 112.794,103.152 114.267,104.319L115.172,103.414ZM112.84,105.745C111.74,104.934 110.38,104.455 108.909,104.455C105.246,104.455 102.273,107.428 102.273,111.091C102.273,114.754 105.246,117.727 108.909,117.727C112.572,117.727 115.545,114.754 115.545,111.091C115.545,109.62 115.066,108.26 114.255,107.16L112.553,108.861C112.952,109.51 113.182,110.274 113.182,111.091C113.182,113.449 111.267,115.364 108.909,115.364C106.551,115.364 104.636,113.449 104.636,111.091C104.636,108.733 106.551,106.818 108.909,106.818C109.726,106.818 110.49,107.048 111.139,107.447L112.84,105.745ZM109.645,108.94C109.414,108.861 109.167,108.818 108.909,108.818C107.655,108.818 106.636,109.837 106.636,111.091C106.636,112.345 107.655,113.364 108.909,113.364C110.163,113.364 111.182,112.345 111.182,111.091C111.182,110.833 111.139,110.586 111.06,110.355L109.616,111.798C109.226,112.188 108.592,112.188 108.202,111.798C107.812,111.408 107.812,110.774 108.202,110.384L109.645,108.94Z"/>
        </g>
    </g>
</svg>
