<?xml version="1.0" encoding="UTF-8"?>
<svg version="1.1" xmlns="http://www.w3.org/2000/svg" width="750" height="750">
<path d="M0 0 C2.60681299 -0.00270079 5.21362499 -0.00658806 7.82043457 -0.01159668 C13.26009386 -0.01882649 18.69953428 -0.00940956 24.13916016 0.00976562 C30.38321941 0.03152557 36.62675578 0.02447084 42.8708024 0.00246 C48.93529451 -0.01804315 54.99955912 -0.01566517 61.06407166 -0.00401306 C63.61864803 -0.0013664 66.17323798 -0.00454197 68.72779846 -0.01393127 C93.65782232 -0.08547846 116.15084592 3.2341341 135.09375 21.09375 C151.45569002 38.23606872 157.25549435 59.07082096 157.65625 82.40625 C157.68954599 83.78779009 157.72404614 85.1693017 157.75976562 86.55078125 C157.84118935 89.87752195 157.91067612 93.204034 157.96875 96.53125 C159.01933594 95.97695313 160.06992187 95.42265625 161.15234375 94.8515625 C162.57003132 94.11924707 163.98801621 93.38750703 165.40625 92.65625 C166.09396484 92.29144531 166.78167969 91.92664063 167.49023438 91.55078125 C168.18310547 91.19628906 168.87597656 90.84179688 169.58984375 90.4765625 C170.52461548 89.98953857 170.52461548 89.98953857 171.47827148 89.49267578 C178.33367526 86.8462117 185.18494679 86.23278676 192.47314453 86.24072266 C193.82885811 86.23064682 193.82885811 86.23064682 195.21195984 86.22036743 C198.17521799 86.20150109 201.13824816 86.1974686 204.1015625 86.1953125 C206.1826893 86.18887529 208.26381522 86.18214626 210.34494019 86.17514038 C214.70068456 86.16319494 219.05634979 86.1594566 223.41210938 86.16064453 C228.95618632 86.16084724 234.4997479 86.13358257 240.04370308 86.09910011 C244.34207424 86.07670858 248.64032393 86.07281077 252.93874741 86.07386398 C254.98060755 86.07152498 257.02247194 86.06279905 259.06427383 86.04719925 C273.73534559 85.94562532 288.12412511 86.432506 300.84375 94.71875 C301.771875 95.30293701 301.771875 95.30293701 302.71875 95.89892578 C317.70821364 105.64756492 325.59833264 119.80269486 329.51668167 136.92568398 C329.96903477 139.53289129 330.11547809 141.95893889 330.14715576 144.6031189 C330.16834221 146.1001812 330.16834221 146.1001812 330.18995667 147.62748718 C330.20042526 148.71125137 330.21089386 149.79501556 330.22167969 150.91162109 C330.23639816 152.06178207 330.25111664 153.21194305 330.26628113 154.3969574 C330.31316229 158.19949311 330.35255119 162.00205394 330.390625 165.8046875 C330.40448494 167.10424 330.41834488 168.4037925 330.43262482 169.74272537 C330.49828942 175.90911457 330.5604523 182.07551586 330.61680388 188.24199712 C330.68178032 195.3468922 330.7599238 202.45148109 330.84948611 209.55610788 C330.92630502 215.72135236 330.98624045 221.88665783 331.04013824 228.0521431 C331.06537785 230.67003382 331.09573365 233.28788043 331.13130951 235.90565109 C331.17977048 239.56782874 331.20892496 243.22968408 331.23339844 246.89208984 C331.25196396 247.97180557 331.27052948 249.0515213 331.28965759 250.16395569 C331.30954887 257.18135144 330.93834425 262.3430424 325.95923567 267.68869925 C321.72332916 270.29860064 318.21059643 270.08465197 313.32501984 270.03461456 C312.34318023 270.04042833 311.36134063 270.04624209 310.34974831 270.05223203 C307.0396008 270.06690084 303.73018681 270.05291427 300.42004395 270.03918457 C298.03102885 270.04379074 295.64201658 270.05014174 293.25301027 270.05809355 C288.04850688 270.07134495 282.84415424 270.07209351 277.63965034 270.06190491 C269.9004838 270.04679537 262.1614576 270.05449922 254.42229204 270.06673814 C240.60143078 270.08782056 226.78064339 270.08596782 212.95977508 270.07442249 C200.86506693 270.06436846 188.7703859 270.06172962 176.67567444 270.06651306 C175.87404897 270.0668186 175.07242351 270.06712414 174.24650637 270.06743894 C170.99261664 270.06868425 167.73872692 270.06995785 164.48483722 270.071278 C133.94794687 270.0835197 103.41110364 270.07241112 72.87422056 270.05089041 C45.73171425 270.03190735 18.589283 270.03360583 -8.55322266 270.05273438 C-39.03351955 270.0741433 -69.5137748 270.0826516 -99.99407816 270.07028532 C-103.24211024 270.06900241 -106.49014234 270.06775105 -109.73817444 270.06651306 C-110.53794895 270.06619675 -111.33772346 270.06588044 -112.16173356 270.06555455 C-124.25016268 270.06100068 -136.33856174 270.06633315 -148.42698669 270.07643127 C-162.16922929 270.08785355 -175.91138632 270.08504062 -189.65361822 270.0633083 C-197.3489189 270.05154088 -205.04403439 270.05082829 -212.73933037 270.065893 C-218.47643975 270.0758876 -224.21335636 270.06509057 -229.9504357 270.0459947 C-232.27808227 270.04150685 -234.60575348 270.04384338 -236.93338436 270.05349785 C-240.08512251 270.06557308 -243.23583617 270.05327662 -246.38751984 270.03461456 C-247.30187154 270.04397923 -248.21622325 270.05334389 -249.15828258 270.06299233 C-253.32382754 270.01332704 -255.46787223 269.8877221 -259.06324816 267.61278105 C-265.75092449 260.53930905 -264.45598331 249.93637938 -264.39453125 240.84375 C-264.39401032 239.29899089 -264.39453697 237.75423112 -264.39604187 236.20947266 C-264.39595236 232.96490606 -264.38559451 229.72058889 -264.36743164 226.47607422 C-264.34519677 222.42583755 -264.34430732 218.37597522 -264.35068893 214.32569504 C-264.3700466 197.99767496 -264.10454656 181.72152549 -263.09765625 165.421875 C-263.05627344 164.74906494 -263.01489063 164.07625488 -262.9722538 163.38305664 C-260.00097071 116.25978569 -260.00097071 116.25978569 -244.0546875 101.21875 C-231.49055752 90.74055666 -217.13001074 86.39223244 -200.98168945 86.37011719 C-200.10261429 86.36515228 -199.22353912 86.36018738 -198.31782532 86.35507202 C-195.42671915 86.34053894 -192.53566786 86.33366282 -189.64453125 86.328125 C-188.65093283 86.32529762 -187.6573344 86.32247025 -186.63362694 86.31955719 C-181.37431958 86.30459947 -176.1150394 86.29534875 -170.85571289 86.29101562 C-165.45038883 86.28553962 -160.04531774 86.26152002 -154.64007282 86.23304367 C-150.45935868 86.2143273 -146.27870437 86.20920689 -142.09795189 86.20767975 C-140.10664679 86.20467241 -138.11534227 86.19670957 -136.12407875 86.18349457 C-122.45948752 86.09928957 -110.59920467 86.69023402 -98.28125 93.21875 C-97.66765625 93.53908203 -97.0540625 93.85941406 -96.421875 94.18945312 C-94.95232071 94.95867295 -93.49078605 95.7431869 -92.03125 96.53125 C-91.99161133 95.58507812 -91.95197266 94.63890625 -91.91113281 93.6640625 C-91.75611469 90.06975961 -91.57920427 86.47678108 -91.39648438 82.88378906 C-91.32107787 81.34434619 -91.25119552 79.80462032 -91.1875 78.26464844 C-90.1424654 53.28179003 -83.01306435 34.46129166 -64.59765625 17.2578125 C-45.50380615 0.89165527 -23.91853009 -0.08791276 0 0 Z M-54.03125 42.53125 C-62.55537099 54.09453128 -65.46329596 64.29661654 -65.578125 78.49609375 C-65.59885574 79.79076065 -65.61958649 81.08542755 -65.64094543 82.41932678 C-65.69617514 86.01246666 -65.73098367 89.60554495 -65.76091385 93.19897461 C-65.78133447 95.47817845 -65.80740575 97.75725155 -65.83517456 100.03637695 C-66.09874267 122.05771421 -66.03138878 144.0757563 -65.86328125 166.09765625 C-65.85484381 167.20383741 -65.84640636 168.31001858 -65.83771324 169.44972038 C-65.6395669 194.47760926 -65.31854943 219.50427712 -65.03125 244.53125 C-0.35125 244.53125 64.32875 244.53125 130.96875 244.53125 C131.0925 200.8784375 131.0925 200.8784375 131.21875 156.34375 C131.25516602 147.16925049 131.29158203 137.99475098 131.32910156 128.54223633 C131.34248283 120.28762354 131.34248283 120.28762354 131.3505249 112.03300476 C131.35423769 108.36847664 131.36917201 104.70418247 131.39105225 101.03971863 C131.41866184 96.35301157 131.42668294 91.66664055 131.4210391 86.97985971 C131.42221778 85.26761247 131.43004691 83.55535244 131.44561052 81.84317553 C131.58405707 65.85887768 128.77544941 52.34575832 117.75 40.05859375 C105.72336954 28.36386705 91.25420614 25.21426032 74.99633789 25.2565918 C73.96062149 25.25148087 72.92490509 25.24636993 71.85780334 25.24110413 C68.46894385 25.22732036 65.08029026 25.22815623 61.69140625 25.23046875 C59.31448798 25.22657605 56.93757039 25.22224021 54.56065369 25.21748352 C49.59225198 25.21004569 44.62392138 25.21029517 39.65551758 25.21557617 C33.31314732 25.22137163 26.97106901 25.20442573 20.62874699 25.1812315 C15.72401755 25.1664464 10.81935769 25.16562889 5.91460991 25.16874123 C3.57721821 25.16823056 1.23982235 25.16304097 -1.09754753 25.15292931 C-21.67938903 25.07479764 -39.34549592 26.26432175 -54.03125 42.53125 Z M-229.13671875 122.328125 C-234.09001697 128.08824911 -238.16067909 136.19909994 -238.15150452 143.8782196 C-238.15288201 144.76398776 -238.15425951 145.64975592 -238.15567875 146.56236553 C-238.15208064 147.53524926 -238.14848253 148.50813299 -238.14477539 149.51049805 C-238.14489593 150.55163915 -238.14501646 151.59278025 -238.14514065 152.66547108 C-238.14439325 156.04132524 -238.13677281 159.41712444 -238.12890625 162.79296875 C-238.1274363 164.87487766 -238.12641592 166.95678694 -238.12585449 169.03869629 C-238.12060779 176.76538649 -238.10664663 184.49206878 -238.09375 192.21875 C-238.073125 209.481875 -238.0525 226.745 -238.03125 244.53125 C-189.52125 244.53125 -141.01125 244.53125 -91.03125 244.53125 C-90.969375 227.9075 -90.9075 211.28375 -90.84375 194.15625 C-90.81643799 188.92217285 -90.78912598 183.6880957 -90.76098633 178.29541016 C-90.75094827 173.57207021 -90.75094827 173.57207021 -90.74491882 168.84872437 C-90.7403353 166.75747763 -90.72983252 164.66623845 -90.71452332 162.57504272 C-90.69240934 159.39315174 -90.68953714 156.21174202 -90.69067383 153.02978516 C-90.6798795 152.11019327 -90.66908518 151.19060139 -90.65796375 150.24314308 C-90.70848007 139.60540253 -93.72904241 130.26393385 -101.00390625 122.3984375 C-110.60658169 113.21916045 -121.01194785 111.37742213 -133.92504883 111.38598633 C-134.66932632 111.38262772 -135.41360382 111.3792691 -136.18043518 111.37580872 C-138.61640132 111.36638816 -141.05229808 111.36436013 -143.48828125 111.36328125 C-145.19927497 111.36006251 -146.91026843 111.35669798 -148.6212616 111.35319519 C-152.19941851 111.34722616 -155.77755135 111.345353 -159.35571289 111.34594727 C-163.91470321 111.34604876 -168.47353736 111.33239922 -173.03249073 111.31517506 C-176.5646382 111.30399383 -180.09674863 111.30202993 -183.62891197 111.30255699 C-185.30843328 111.30138599 -186.98795583 111.29701431 -188.66745949 111.28922462 C-203.87502334 111.22529024 -217.37048822 111.65264957 -229.13671875 122.328125 Z M164.7265625 124.2109375 C160.00249739 130.44670344 156.83890773 138.06058465 156.84849548 145.92254639 C156.84711799 146.79289898 156.84574049 147.66325157 156.84432125 148.55997849 C156.84791936 149.51052738 156.85151747 150.46107628 156.85522461 151.44042969 C156.85510407 152.46186695 156.85498354 153.48330421 156.85485935 154.53569412 C156.85560564 157.84152658 156.86322101 161.14730263 156.87109375 164.453125 C156.87256405 166.49430311 156.87358422 168.53548159 156.87414551 170.57666016 C156.87938822 178.14486252 156.89334941 185.71305681 156.90625 193.28125 C156.926875 210.19375 156.9475 227.10625 156.96875 244.53125 C205.47875 244.53125 253.98875 244.53125 303.96875 244.53125 C304.1234375 218.915 304.1234375 218.915 304.28125 192.78125 C304.32677002 187.40875977 304.37229004 182.03626953 304.41918945 176.50097656 C304.43592183 171.643288 304.43592183 171.643288 304.44596863 166.7855835 C304.45359674 164.63855798 304.47107807 162.49155256 304.49662781 160.34466553 C304.79670763 139.09383927 304.79670763 139.09383927 294.0390625 121.28125 C281.78802849 110.92565899 267.42824132 111.22286961 252.21875 111.265625 C250.51204371 111.26427437 248.8053378 111.26233053 247.09863281 111.25982666 C243.53837384 111.25689412 239.97821589 111.26111239 236.41796875 111.27050781 C231.88258826 111.2819012 227.34744459 111.27533164 222.81207275 111.26336288 C219.29278824 111.25609349 215.77355874 111.25845539 212.25427246 111.26361847 C210.58312959 111.26494096 208.91198152 111.26335709 207.24084473 111.25865936 C191.20067108 111.22345066 176.37609661 111.8067777 164.7265625 124.2109375 Z " fill="#282D78" transform="translate(343.03125,377.46875)"/>
<path d="M0 0 C3.36073557 2.83093808 6.57583021 5.7086678 9.5625 8.9375 C10.08070313 9.45054687 10.59890625 9.96359375 11.1328125 10.4921875 C24.28944229 24.23880069 29.71806307 43.25048629 29.5625 61.9375 C28.35659034 82.80404395 20.0694118 99.40919158 5.5625 113.9375 C4.97726562 114.53433594 4.39203125 115.13117188 3.7890625 115.74609375 C-9.38921725 128.08818824 -29.17136089 134.70143728 -47.0234375 134.1171875 C-68.38984567 132.5268076 -86.56969883 124.78183983 -101.4375 108.9375 C-114.49904575 92.65819906 -122.02406785 73.06653204 -119.99023438 52.00830078 C-117.47145356 30.29661494 -107.05448929 13.28057998 -90.44140625 -0.546875 C-64.03938688 -20.51565379 -26.10536234 -20.36371373 0 0 Z M-82.25 26.5625 C-90.48574443 36.25942489 -95.01869928 48.49273321 -94.68359375 61.20703125 C-93.36412977 75.84679828 -87.39531657 88.0872116 -76.4375 97.9375 C-63.9006419 106.92140236 -51.58198738 109.44083861 -36.4375 107.9375 C-23.548256 105.3741335 -12.54023163 98.17336237 -4.75 87.66015625 C2.71016742 76.152848 5.36283563 63.49023654 3.0546875 49.9609375 C-0.32485023 36.17086975 -7.91680075 24.72959532 -20.1015625 17.18359375 C-41.12915025 5.96653607 -65.44297018 9.27847601 -82.25 26.5625 Z " fill="#282D78" transform="translate(421.4375,220.0625)"/>
<path d="M0 0 C14.80429236 12.46923048 20.93739247 27.70795468 23.0234375 46.6015625 C23.79687402 62.4867588 17.1043108 78.8172322 6.625 90.5625 C-4.42568013 102.19284968 -19.1117246 109.60834604 -35.24609375 110.36328125 C-54.25349374 110.84028442 -69.86236261 105.89619753 -83.93359375 92.5703125 C-95.89301385 79.94535974 -102.03483205 64.98528427 -102.625 47.5625 C-101.96901166 30.45634243 -95.28537952 14.69240108 -83.1015625 2.6796875 C-59.10726064 -18.81657746 -25.17616845 -19.27904791 0 0 Z M-66.25 22.125 C-74.04474537 31.33126867 -76.90456072 39.59794113 -76.59375 51.62890625 C-75.59632786 61.7731428 -70.9658895 70.4268678 -63.078125 76.91015625 C-54.06931384 83.23185649 -44.7983239 86.1246641 -33.8125 84.5 C-23.5573295 82.31165818 -15.72094311 77.42108091 -9.25 69.125 C-4.08456747 60.12555908 -1.73936353 51.17751426 -3.93359375 40.93359375 C-6.98194426 30.01771621 -12.43339002 21.71524188 -22.33203125 15.90234375 C-36.55367977 8.54085963 -54.71479612 10.73612006 -66.25 22.125 Z " fill="#282D78" transform="translate(218.25,329.875)"/>
<path d="M0 0 C11.9995723 9.95034957 20.34348375 25.47866965 22 41 C23.33804779 57.71530466 19.15194386 73.34792466 8.8984375 86.74609375 C-2.77079304 100.29147267 -16.95338579 108.86854385 -34.9765625 110.3203125 C-52.8724457 111.03614783 -68.91876208 106.12019611 -82.75 94.4375 C-96.09705218 81.61653601 -102.49483833 65.3361163 -103 47 C-102.28608534 28.40160782 -94.71167771 13.82035221 -81.41015625 1.06640625 C-74.09668769 -5.20397441 -66.19484797 -9.25259047 -57 -12 C-56.28585937 -12.22558594 -55.57171875 -12.45117188 -54.8359375 -12.68359375 C-35.47290525 -17.94134595 -15.65821817 -11.57451621 0 0 Z M-69 25 C-75.47438569 33.67272782 -78.03160445 42.22546461 -77 53 C-75.06571501 63.43538622 -70.10979383 72.32001253 -61.4375 78.53125 C-51.72523787 84.38351052 -42.14008725 86.12707167 -31 84 C-18.76892235 79.56285827 -11.59489087 73.04500486 -5.9453125 61.296875 C-2.56361293 53.08018348 -2.59597705 42.3934692 -5.90625 34.1484375 C-10.94470389 24.2514745 -17.79960641 17.28808383 -28.1875 13.0625 C-44.02140196 8.57856316 -58.25048917 12.97033727 -69 25 Z " fill="#282D78" transform="translate(614,330)"/>
<path d="M0 0 C0.81361496 -0.0004985 1.62722992 -0.00099701 2.46549988 -0.00151062 C4.18088227 0.00082111 5.89626865 0.01049626 7.61157227 0.02709961 C10.21206936 0.05061487 12.81153339 0.04766294 15.41210938 0.04101562 C17.0872456 0.04659624 18.76237755 0.05370852 20.4375 0.0625 C21.58639458 0.06113289 21.58639458 0.06113289 22.75849915 0.05973816 C35.52760868 0.22405342 35.52760868 0.22405342 40.05085754 3.57182312 C43.38792201 7.18190151 44.41796875 10.5324328 44.41796875 15.36328125 C43.20676347 19.82960073 42.18624607 21.80544538 38.42407227 24.53710938 C33.83349586 27.00107794 29.43484466 26.94016454 24.3203125 26.89453125 C22.89157555 26.90027161 22.89157555 26.90027161 21.43397522 26.90612793 C19.4295241 26.90883852 17.42503708 26.90153735 15.4206543 26.88476562 C12.36101193 26.8633201 9.30371116 26.88460865 6.24414062 26.91015625 C4.29035943 26.90751329 2.33657968 26.90238896 0.3828125 26.89453125 C-0.5267067 26.90262817 -1.43622589 26.9107251 -2.37330627 26.91906738 C-7.93719129 26.83729117 -11.17533637 26.08634969 -15.58203125 22.36328125 C-18.46633015 18.90212257 -19.12581505 15.8749298 -18.9296875 11.35546875 C-18.33293325 7.93586574 -16.85142325 5.93127746 -14.58203125 3.36328125 C-9.6222915 0.2392803 -5.66996928 -0.06764096 0 0 Z " fill="#282D78" transform="translate(225.58203125,249.63671875)"/>
<path d="M0 0 C3.32673762 2.67987197 4.96537891 5.67873518 5.53683472 9.96286011 C5.66244777 12.49935432 5.69199278 15.01899062 5.68359375 17.55859375 C5.6888356 18.48793228 5.69407745 19.41727081 5.69947815 20.37477112 C5.70588158 22.33390304 5.70458316 24.29307349 5.69604492 26.25219727 C5.68753651 29.23719255 5.71631716 32.22027166 5.74804688 35.20507812 C5.74965922 37.11458276 5.74908072 39.02409077 5.74609375 40.93359375 C5.76294472 42.26202553 5.76294472 42.26202553 5.78013611 43.61729431 C5.71443703 49.50718277 4.72099865 53.00647186 1.25 57.8125 C-3.19822045 60.54986643 -6.82401195 61.35647461 -11.890625 60.453125 C-15.81444244 59.10122151 -17.97515537 56.27490439 -19.86181641 52.71411133 C-21.10054906 48.66728957 -21.07485894 44.84744966 -21.0859375 40.63671875 C-21.0959227 39.31073418 -21.0959227 39.31073418 -21.10610962 37.95796204 C-21.11621309 36.09121778 -21.12092735 34.22443758 -21.12060547 32.35766602 C-21.12496966 29.5197306 -21.16128805 26.68336278 -21.19921875 23.84570312 C-21.20508942 22.02604694 -21.20905714 20.20638343 -21.2109375 18.38671875 C-21.22530853 17.54686935 -21.23967957 16.70701996 -21.25448608 15.84172058 C-21.21091538 10.14789964 -20.16710018 5.47975555 -16.75 0.8125 C-10.87307557 -2.8467171 -6.26205686 -2.70407001 0 0 Z " fill="#282D78" transform="translate(383.75,104.1875)"/>
<path d="M0 0 C1.82983398 1.16821289 1.82983398 1.16821289 3.55859375 2.78515625 C4.58460693 3.73745117 4.58460693 3.73745117 5.63134766 4.70898438 C6.41300293 5.46501953 7.1946582 6.22105469 8 7 C8.93763184 7.90041016 9.87526367 8.80082031 10.84130859 9.72851562 C13.48082963 12.28087992 16.09159762 14.86086038 18.69262695 17.45239258 C20.31997215 19.0699271 21.95769607 20.67647534 23.59570312 22.28320312 C24.64388462 23.32486169 25.69143349 24.36715731 26.73828125 25.41015625 C27.22267166 25.88219986 27.70706207 26.35424347 28.20613098 26.84059143 C31.29575084 29.95061454 33.34941557 32.93689016 35 37 C34.907119 42.29421708 33.79804142 45.30460835 30 49 C26.03896569 51.70070521 22.8383788 52.61764903 18.03808594 51.74609375 C10.00989666 48.80716869 3.26087765 39.47925654 -2.74755859 33.49267578 C-4.38589851 31.86416688 -6.03461555 30.24663346 -7.68359375 28.62890625 C-8.73502942 27.58399142 -9.7858339 26.538441 -10.8359375 25.4921875 C-11.3254892 25.0149826 -11.81504089 24.53777771 -12.31942749 24.04611206 C-16.00733802 20.33385134 -17.7148835 17.23341258 -18.375 12.0625 C-17.80733765 7.42659082 -15.61469994 4.43338829 -12.15625 1.36328125 C-8.22862139 -1.11994771 -4.4573287 -0.81391186 0 0 Z " fill="#282D78" transform="translate(268,146)"/>
<path d="M0 0 C3.72692572 3.28846387 4.95220532 6.49264256 5.5625 11.375 C4.71589207 18.14786345 -0.31920449 22.62766188 -4.9609375 27.26171875 C-5.54034088 27.84540726 -6.11974426 28.42909576 -6.71670532 29.0304718 C-7.93619965 30.25567812 -9.15828104 31.47831436 -10.3828125 32.69848633 C-12.24631986 34.55882612 -14.09608177 36.43212169 -15.9453125 38.30664062 C-17.13720953 39.50081031 -18.32989195 40.69419672 -19.5234375 41.88671875 C-20.07051361 42.44300461 -20.61758972 42.99929047 -21.1812439 43.57243347 C-24.47247551 46.8247794 -27.50461435 49.13750891 -31.875 50.875 C-37.31131002 50.77792304 -40.67585675 49.2929073 -44.875 45.875 C-47.23925345 42.86595015 -47.14115441 39.7307178 -47.23828125 35.97265625 C-46.2237753 30.11470254 -41.37570153 26.08329279 -37.34375 22.078125 C-36.71142456 21.44388611 -36.07909912 20.80964722 -35.4276123 20.15618896 C-34.09531219 18.82253246 -32.76050145 17.49137985 -31.42333984 16.16259766 C-29.37492491 14.1249253 -27.33743684 12.07676218 -25.30078125 10.02734375 C-24.00324527 8.73112876 -22.70508934 7.43553398 -21.40625 6.140625 C-20.79680542 5.52713196 -20.18736084 4.91363892 -19.55944824 4.28155518 C-18.9887561 3.71716736 -18.41806396 3.15277954 -17.83007812 2.57128906 C-17.33060669 2.07340881 -16.83113525 1.57552856 -16.31652832 1.06256104 C-11.97052891 -2.51776374 -4.93661646 -1.93171948 0 0 Z " fill="#282D78" transform="translate(496.875,147.125)"/>
<path d="M0 0 C1.26438904 -0.00855011 1.26438904 -0.00855011 2.55432129 -0.01727295 C4.32933309 -0.02668085 6.10436202 -0.03324009 7.87939453 -0.03710938 C10.58527021 -0.04684449 13.29039498 -0.0779191 15.99609375 -0.109375 C17.72655802 -0.11590339 19.45702768 -0.12115451 21.1875 -0.125 C21.99078735 -0.1373468 22.79407471 -0.1496936 23.6217041 -0.16241455 C29.6950909 -0.13846308 33.78204195 1.19558906 38.46875 5.265625 C40.84852223 9.56752095 40.99338018 13.3974082 40.09375 18.203125 C38.07546466 22.10407967 35.13538299 24.54935797 31.09375 26.203125 C28.97596741 26.46382141 28.97596741 26.46382141 26.67993164 26.4777832 C25.38322289 26.49208122 25.38322289 26.49208122 24.06031799 26.50666809 C23.13420212 26.50575668 22.20808624 26.50484528 21.25390625 26.50390625 C20.29479843 26.50819138 19.33569061 26.5124765 18.34751892 26.51689148 C16.32096139 26.52262934 14.29438327 26.52313905 12.26782227 26.51879883 C9.17102848 26.51564007 6.07519126 26.5391008 2.97851562 26.56445312 C1.0078137 26.56672632 -0.96289078 26.56742952 -2.93359375 26.56640625 C-4.31973122 26.58022087 -4.31973122 26.58022087 -5.73387146 26.59431458 C-10.62294751 26.55921526 -13.94287776 26.38945947 -17.90625 23.203125 C-21.29604247 19.71917162 -22.80819272 17.10598913 -22.90625 12.203125 C-21.31275019 7.0685145 -19.53904305 4.0043487 -14.90625 1.203125 C-9.94405435 0.08412576 -5.0594169 0.02676739 0 0 Z " fill="#282D78" transform="translate(504.90625,249.796875)"/>
</svg>
