<?xml version="1.0" standalone="no"?>
<!DOCTYPE svg PUBLIC "-//W3C//DTD SVG 20010904//EN"
 "http://www.w3.org/TR/2001/REC-SVG-20010904/DTD/svg10.dtd">
<svg version="1.0" xmlns="http://www.w3.org/2000/svg"
 width="750.000000pt" height="750.000000pt" viewBox="0 0 750.000000 750.000000"
 preserveAspectRatio="xMidYMid meet">

<g transform="translate(0.000000,750.000000) scale(0.100000,-0.100000)"
fill="#282D78" stroke="none">
<path d="M3532 5730 c-43 -26 -62 -74 -62 -154 0 -60 -2 -66 -22 -71 -131 -28
-214 -49 -267 -67 l-65 -21 -15 20 c-9 11 -28 42 -44 67 -28 48 -72 76 -119
76 -24 0 -319 -160 -356 -193 -12 -11 -27 -39 -33 -61 -10 -37 -8 -45 28 -115
l39 -74 -131 -129 -130 -128 -72 36 c-79 40 -118 41 -166 4 -14 -11 -65 -89
-114 -172 -120 -208 -119 -250 7 -319 33 -19 60 -39 60 -45 0 -6 -11 -42 -24
-82 -21 -60 -33 -109 -62 -249 -4 -22 -10 -23 -83 -23 -65 0 -83 -4 -106 -22
-48 -37 -55 -71 -54 -255 0 -247 15 -273 161 -283 l82 -5 18 -92 c10 -51 31
-131 47 -178 l29 -86 -42 -26 c-22 -14 -51 -32 -63 -39 -35 -22 -55 -60 -55
-102 1 -30 21 -74 87 -188 47 -82 99 -161 116 -176 42 -40 94 -38 174 7 l62
35 132 -131 132 -131 -32 -51 c-40 -65 -48 -129 -21 -172 13 -21 71 -59 183
-123 151 -86 168 -93 207 -89 51 6 81 31 123 104 17 29 34 53 38 53 4 0 40
-11 80 -25 39 -13 115 -33 168 -45 53 -11 100 -23 105 -26 4 -3 8 -44 8 -91 0
-83 1 -86 33 -118 42 -42 79 -48 278 -43 121 3 161 7 185 20 45 25 64 72 64
162 0 42 2 76 5 76 26 0 178 37 252 61 51 17 97 28 102 25 5 -4 24 -31 42 -62
17 -31 46 -64 63 -75 56 -34 87 -26 250 67 175 101 192 115 208 166 11 37 9
44 -30 119 -23 43 -37 79 -32 79 5 0 65 56 133 125 l125 125 59 -35 c67 -41
121 -46 167 -16 38 25 216 333 216 373 0 50 -27 86 -95 125 -36 20 -65 43 -65
49 0 6 6 27 14 45 12 30 56 197 70 270 5 25 10 27 78 31 40 3 88 12 105 22 57
29 63 53 63 263 0 169 -2 191 -20 220 -28 46 -67 63 -149 63 -65 0 -71 2 -75
23 -17 85 -51 218 -67 264 -10 31 -19 60 -19 64 0 5 21 20 48 33 65 33 103 75
109 122 4 34 -4 54 -67 164 -105 182 -127 216 -155 228 -46 21 -93 14 -157
-23 l-60 -35 -132 133 -132 133 36 59 c46 78 47 133 4 175 -16 16 -96 68 -179
115 -141 81 -153 86 -198 82 -56 -5 -76 -21 -124 -100 -26 -44 -39 -57 -52
-52 -60 24 -170 55 -248 71 l-93 18 0 68 c0 84 -19 131 -62 158 -30 18 -50 20
-223 20 -173 0 -193 -2 -223 -20z m386 -190 c1 -47 4 -95 7 -107 6 -25 28 -33
165 -58 47 -9 142 -35 212 -59 105 -36 131 -41 149 -32 12 6 42 45 67 86 24
41 45 76 47 78 1 2 231 -127 273 -153 1 -1 -18 -38 -43 -81 -64 -112 -62 -118
43 -206 48 -41 127 -120 176 -176 107 -121 112 -123 223 -57 42 24 78 44 78
42 1 -1 37 -62 80 -136 54 -94 74 -136 65 -141 -6 -4 -43 -25 -80 -46 -38 -21
-73 -48 -79 -60 -7 -17 0 -50 34 -150 24 -71 52 -169 61 -219 29 -163 31 -165
167 -165 l87 0 0 -155 0 -155 -94 0 c-122 0 -131 -7 -150 -115 -19 -110 -41
-190 -82 -302 -42 -117 -40 -122 71 -183 41 -23 75 -43 75 -45 0 -11 -153
-265 -160 -265 -5 0 -39 18 -77 39 -110 62 -115 61 -203 -43 -39 -46 -118
-125 -175 -176 -84 -74 -105 -98 -105 -119 0 -14 20 -60 44 -101 25 -41 41
-78 38 -82 -4 -4 -65 -41 -137 -82 l-130 -75 -47 82 c-27 45 -56 86 -67 90
-13 6 -56 -4 -139 -32 -66 -22 -175 -52 -242 -65 -67 -14 -128 -30 -136 -37
-10 -9 -14 -38 -14 -120 l0 -109 -160 0 -160 0 0 103 c0 67 -4 109 -13 120 -8
12 -52 26 -135 42 -67 14 -169 41 -225 61 -140 49 -144 49 -168 28 -11 -10
-38 -51 -61 -91 l-42 -73 -45 27 c-25 14 -88 50 -139 80 l-93 54 20 32 c52 84
71 124 71 148 0 21 -21 45 -101 115 -55 48 -134 128 -175 176 -94 110 -95 110
-217 41 -43 -24 -80 -43 -82 -41 -16 19 -152 265 -149 270 3 4 38 26 80 49 98
53 104 67 70 156 -39 103 -63 187 -86 303 -12 57 -26 110 -32 117 -6 8 -46 13
-111 15 l-102 3 -3 158 -3 157 88 0 c88 0 129 12 144 40 4 8 17 66 29 129 12
63 39 164 61 225 24 66 37 120 34 133 -3 15 -32 39 -85 69 -44 26 -80 51 -80
57 0 5 8 24 19 41 10 17 44 75 75 128 l56 97 78 -45 c42 -24 88 -44 101 -44
18 0 58 35 156 138 73 75 151 151 173 167 23 17 46 42 53 57 10 25 7 36 -35
109 -25 45 -46 85 -46 89 0 4 46 34 103 66 56 32 116 66 134 77 l32 18 47 -81
c29 -50 56 -85 70 -90 18 -7 47 -1 118 25 109 39 221 69 316 84 91 15 100 28
100 147 l0 95 158 -3 157 -3 3 -85z"/>
<path d="M3630 5174 c-277 -34 -502 -115 -709 -257 -104 -71 -293 -263 -363
-367 -109 -165 -182 -337 -224 -530 -29 -133 -27 -430 4 -569 66 -294 190
-521 396 -727 75 -75 146 -134 216 -180 216 -142 550 -257 461 -159 -10 11
-28 38 -39 60 -17 35 -28 43 -74 58 -62 19 -210 94 -277 139 -253 172 -436
417 -529 709 -44 138 -56 226 -56 399 -1 125 4 175 23 260 56 255 176 476 356
655 197 195 440 321 712 371 116 21 341 20 458 -1 592 -106 1035 -597 1084
-1200 30 -383 -104 -741 -384 -1020 -137 -137 -270 -223 -487 -313 -16 -7 -28
-19 -28 -30 0 -10 -14 -40 -31 -66 -17 -26 -29 -50 -25 -53 10 -11 164 43 265
92 421 205 706 577 797 1040 23 118 24 364 1 490 -49 273 -163 512 -338 713
-208 237 -495 402 -806 462 -104 20 -326 33 -403 24z"/>
<path d="M3732 4824 c-20 -14 -22 -23 -22 -114 0 -91 2 -100 22 -114 30 -21
54 -20 78 4 17 17 20 33 20 110 0 77 -3 93 -20 110 -24 24 -48 25 -78 4z"/>
<path d="M3210 4680 c-28 -28 -25 -47 22 -134 48 -88 75 -107 114 -81 41 27
40 56 -6 140 -54 97 -88 117 -130 75z"/>
<path d="M4264 4689 c-24 -8 -104 -145 -104 -176 0 -33 25 -56 60 -56 38 0 51
14 100 110 30 61 32 68 19 91 -17 30 -46 42 -75 31z"/>
<path d="M3600 4445 c-387 -79 -649 -431 -601 -807 24 -189 101 -332 256 -474
119 -110 135 -143 135 -281 0 -122 10 -160 55 -203 l36 -35 264 0 263 0 27 25
c46 43 55 71 55 179 0 154 15 186 159 329 74 74 130 141 154 182 168 291 110
671 -137 897 -184 167 -428 236 -666 188z m320 -131 c209 -62 387 -244 435
-445 19 -82 19 -219 0 -292 -30 -117 -79 -194 -194 -307 -105 -103 -152 -165
-172 -232 -6 -18 -14 -87 -17 -153 l-7 -120 -209 -3 c-145 -2 -213 1 -222 9
-10 8 -14 38 -14 108 0 99 -14 171 -45 231 -10 19 -71 87 -135 150 -128 125
-172 194 -204 317 -20 77 -20 222 -1 297 47 179 201 354 369 419 130 49 294
58 416 21z"/>
<path d="M3838 3813 l-178 -178 -83 83 c-88 87 -118 100 -150 64 -34 -37 -22
-60 95 -179 84 -85 118 -113 137 -113 20 0 72 47 233 208 218 217 228 232 188
272 -40 40 -56 29 -242 -157z"/>
<path d="M2827 4282 c-20 -22 -22 -52 -4 -73 16 -21 143 -99 160 -99 7 0 23 7
35 16 18 12 22 24 20 52 -3 32 -10 40 -73 79 -75 47 -113 53 -138 25z"/>
<path d="M4538 4255 c-36 -24 -69 -53 -73 -65 -8 -26 16 -66 45 -75 26 -8 153
64 177 102 15 23 15 28 2 52 -24 43 -71 39 -151 -14z"/>
<path d="M2690 3750 c-25 -25 -26 -62 -2 -83 23 -21 203 -25 220 -4 24 30 23
56 -2 82 -23 23 -33 25 -111 25 -72 0 -88 -3 -105 -20z"/>
<path d="M4600 3750 c-24 -24 -25 -48 -4 -78 14 -20 23 -22 114 -22 95 0 100
1 116 25 14 21 14 30 4 54 -14 35 -32 41 -132 41 -65 0 -81 -3 -98 -20z"/>
<path d="M3530 2573 c-43 -16 -54 -82 -18 -107 19 -13 61 -16 260 -16 225 0
239 1 258 20 23 23 26 58 6 86 -13 18 -30 19 -253 21 -131 1 -245 -1 -253 -4z"/>
<path d="M3600 2383 c-54 -21 -65 -70 -24 -102 25 -19 40 -21 194 -21 154 0
169 2 194 21 31 25 34 59 5 85 -19 17 -40 19 -188 21 -91 1 -173 -1 -181 -4z"/>
</g>
</svg>
