<?xml version="1.0" encoding="UTF-8" standalone="no"?>
<!DOCTYPE svg PUBLIC "-//W3C//DTD SVG 1.1//EN" "http://www.w3.org/Graphics/SVG/1.1/DTD/svg11.dtd">
<svg width="100%" height="100%" viewBox="0 0 32 32" version="1.1" xmlns="http://www.w3.org/2000/svg" xmlns:xlink="http://www.w3.org/1999/xlink" xml:space="preserve" xmlns:serif="http://www.serif.com/" style="fill-rule:evenodd;clip-rule:evenodd;stroke-linejoin:round;stroke-miterlimit:2;">
    <g transform="matrix(1,0,0,1,-94,-10)">
        <g id="Design-Here" serif:id="Design Here">
            <path d="M106.416,20.686C105.1,22.908 102.362,27.752 101.04,31.719C100.477,33.406 100.76,35.26 101.8,36.703C102.84,38.145 104.51,39 106.288,39C108.045,39 111.955,39 113.712,39C115.49,39 117.16,38.145 118.2,36.703C119.24,35.26 119.523,33.406 118.96,31.719C117.536,27.444 114.467,22.152 113.306,20.22C113.513,20.065 113.725,19.916 113.923,19.751C114.19,19.529 114.432,19.28 114.668,19.027C114.862,18.818 115.042,18.592 115.173,18.339C115.715,17.293 115.432,16.513 114.841,15.851C114.495,15.464 113.982,15.138 113.61,14.8C112.9,14.155 112.284,13.496 111.278,13.296C110.399,13.122 109.136,13.301 108.479,13.97C108.259,14.194 108.088,14.445 107.924,14.697C107.806,14.877 107.711,15.073 107.512,15.199C107.098,15.461 106.581,15.538 106.11,15.702C105.605,15.877 105.137,16.116 104.754,16.497C104.302,16.948 104.134,17.427 104.123,17.888C104.113,18.32 104.254,18.756 104.528,19.161C104.951,19.788 105.744,20.347 106.416,20.686ZM111.442,21C112.418,22.605 115.619,28.018 117.063,32.351C117.422,33.428 117.241,34.612 116.578,35.533C115.914,36.454 114.848,37 113.712,37C113.712,37 106.288,37 106.288,37C105.152,37 104.086,36.454 103.422,35.533C102.759,34.612 102.578,33.428 102.937,32.351C104.381,28.018 107.582,22.605 108.558,21L111.442,21ZM109,25L108,25C107.448,25 107,25.448 107,26L107,29C107,29.552 107.448,30 108,30L111,30C111,30 111,31 111,31C111,31 108,31 108,31C107.448,31 107,31.448 107,32C107,32.552 107.448,33 108,33L109,33L109,34C109,34.552 109.448,35 110,35C110.552,35 111,34.552 111,34L111,33L112,33C112.552,33 113,32.552 113,32L113,29C113,28.448 112.552,28 112,28L109,28C109,28 109,27 109,27C109,27 112,27 112,27C112.552,27 113,26.552 113,26C113,25.448 112.552,25 112,25L111,25L111,24C111,23.448 110.552,23 110,23C109.448,23 109,23.448 109,24L109,25ZM111.639,19C111.678,18.961 111.722,18.92 111.744,18.902C112.035,18.661 112.355,18.454 112.646,18.212C112.847,18.045 113.026,17.855 113.203,17.665C113.275,17.588 113.349,17.512 113.397,17.419C113.488,17.244 113.329,17.153 113.214,17.049C112.912,16.777 112.544,16.534 112.265,16.28C111.826,15.882 111.511,15.381 110.889,15.258C110.7,15.221 110.467,15.212 110.245,15.248C110.119,15.269 109.988,15.289 109.907,15.371C109.684,15.598 109.551,15.878 109.372,16.124C109.162,16.414 108.915,16.677 108.583,16.888C108.189,17.138 107.737,17.293 107.278,17.431C106.881,17.551 106.46,17.621 106.166,17.914C106.157,17.923 106.146,17.936 106.136,17.948C106.153,17.983 106.183,18.041 106.209,18.075C106.305,18.207 106.435,18.328 106.575,18.44C106.935,18.729 107.367,18.955 107.656,19.047C107.663,19.049 107.67,19.051 107.677,19.054C107.779,19.019 107.888,19 108,19L111.639,19Z"/>
        </g>
    </g>
</svg>
