<?xml version="1.0" encoding="UTF-8" standalone="no"?>
<!DOCTYPE svg PUBLIC "-//W3C//DTD SVG 1.1//EN" "http://www.w3.org/Graphics/SVG/1.1/DTD/svg11.dtd">
<svg width="100%" height="100%" viewBox="0 0 32 32" version="1.1" xmlns="http://www.w3.org/2000/svg" xmlns:xlink="http://www.w3.org/1999/xlink" xml:space="preserve" xmlns:serif="http://www.serif.com/" style="fill-rule:evenodd;clip-rule:evenodd;stroke-linejoin:round;stroke-miterlimit:2;">
    <g transform="matrix(1,0,0,1,-52,-10)">
        <g id="Design-Here" serif:id="Design Here">
            <path d="M68,13C60.825,13 55,18.825 55,26C55,33.175 60.825,39 68,39C75.175,39 81,33.175 81,26C81,18.825 75.175,13 68,13ZM68,15C74.071,15 79,19.929 79,26C79,32.071 74.071,37 68,37C61.929,37 57,32.071 57,26C57,19.929 61.929,15 68,15ZM68,21.709C67.538,21.105 67.021,20.688 66.5,20.418C64.956,19.618 63.288,20.031 62.245,21.061C60.747,22.539 60.556,25.493 62.049,28.45C63.005,30.459 65.416,32.496 67.45,33.835C67.784,34.055 68.216,34.055 68.55,33.835C70.584,32.496 72.995,30.459 73.951,28.45C75.444,25.493 75.253,22.539 73.755,21.061C72.712,20.031 71.044,19.618 69.5,20.418C68.979,20.688 68.462,21.105 68,21.709L68,21.709ZM67.068,24.133C67.218,24.517 67.588,24.77 68,24.77C68.412,24.77 68.782,24.517 68.932,24.133C69.324,23.125 69.84,22.494 70.421,22.193C71.12,21.831 71.877,22.017 72.35,22.484C72.35,22.484 72.35,22.484 72.35,22.484C72.809,22.937 73,23.63 73,24.423C73,25.378 72.713,26.467 72.16,27.558C72.156,27.566 72.152,27.574 72.148,27.583C71.415,29.134 69.625,30.662 68,31.792C66.375,30.662 64.585,29.134 63.852,27.583C63.848,27.574 63.844,27.566 63.84,27.558C63.287,26.467 63,25.378 63,24.423C63,23.63 63.191,22.937 63.65,22.484C64.123,22.017 64.88,21.831 65.579,22.193C66.16,22.494 66.676,23.125 67.068,24.133Z"/>
        </g>
    </g>
</svg>
