<?xml version="1.0" encoding="UTF-8" standalone="no"?>
<!DOCTYPE svg PUBLIC "-//W3C//DTD SVG 1.1//EN" "http://www.w3.org/Graphics/SVG/1.1/DTD/svg11.dtd">
<svg width="100%" height="100%" viewBox="0 0 32 32" version="1.1" xmlns="http://www.w3.org/2000/svg" xmlns:xlink="http://www.w3.org/1999/xlink" xml:space="preserve" xmlns:serif="http://www.serif.com/" style="fill-rule:evenodd;clip-rule:evenodd;stroke-linejoin:round;stroke-miterlimit:2;">
    <g transform="matrix(1,0,0,1,-94,-52)">
        <g id="Design-Here" serif:id="Design Here">
            <path d="M98,77L122,77C122.552,77 123,76.552 123,76C123,75.448 122.552,75 122,75L120,75L120,60C120,59.448 119.552,59 119,59L115,59C114.448,59 114,59.448 114,60L114,75L113,75L113,64C113,63.448 112.552,63 112,63L108,63C107.448,63 107,63.448 107,64L107,75L106,75L106,68C106,67.448 105.552,67 105,67L101,67C100.448,67 100,67.448 100,68L100,75L98,75C97.448,75 97,75.448 97,76C97,76.552 97.448,77 98,77ZM116,75C116,75 116,61 116,61L118,61L118,75L116,75ZM111,75L109,75L109,65L111,65L111,75ZM104,69L104,75C104,75 102,75 102,75C102,75 102,69 102,69L104,69Z"/>
        </g>
    </g>
</svg>
